<svg width="164" height="64" viewBox="0 0 164 64" fill="none" xmlns="http://www.w3.org/2000/svg">
<g clip-path="url(#clip0_389_5)">
<path d="M12.7689 46.7468C11.4745 46.7468 10.5038 46.5228 9.85666 46.0748C9.2095 45.6268 8.66191 44.5067 8.21388 42.7146L1.94146 16.8782H13.5156L16.3531 31.0658C16.5522 31.6632 16.7264 32.2107 16.8758 32.7086C17.0251 33.1566 17.2243 33.5548 17.4732 33.9033C17.7719 34.202 18.1203 34.5007 18.5186 34.7994C19.6138 32.2605 20.7089 29.7466 21.8041 27.2575C22.9491 24.7685 24.0692 22.2794 25.1643 19.7904C25.5626 18.8943 26.0604 18.1974 26.6578 17.6996C27.2552 17.2017 28.1014 16.9528 29.1966 16.9528H33.6769L18.2946 46.7468H12.7689Z" fill="#2B8659"/>
<path d="M15.0417 46.7468C13.7474 46.7468 12.7766 46.5228 12.1295 46.0747C11.4823 45.6267 10.9347 44.5066 10.4867 42.7145L4.21429 16.8781H15.7884L18.6259 31.0657C18.825 31.6631 18.9993 32.2107 19.1486 32.7085C19.298 33.1565 19.4971 33.5548 19.746 33.9032C20.0447 34.2019 20.3931 34.5006 20.7914 34.7993C21.8866 32.2605 22.9818 29.7465 24.0769 27.2575C25.2219 24.7684 26.342 22.2794 27.4372 19.7903C27.8354 18.8942 28.3332 18.1973 28.9306 17.6995C29.528 17.2017 30.3743 16.9528 31.4694 16.9528H35.9497L20.5674 46.7468H15.0417Z" fill="#32BB78"/>
<path d="M17.3145 46.7468C16.0202 46.7468 15.0495 46.5228 14.4023 46.0747C13.7552 45.6267 13.2076 44.5066 12.7595 42.7145L6.48712 16.8781H18.0612L20.8987 31.0657C21.0979 31.6631 21.2721 32.2107 21.4214 32.7085C21.5708 33.1565 21.7699 33.5548 22.0188 33.9032C22.3175 34.2019 22.666 34.5006 23.0642 34.7993C24.1594 32.2605 25.2546 29.7465 26.3498 27.2575C27.4947 24.7684 28.6148 22.2794 29.71 19.7903C30.1082 18.8942 30.6061 18.1973 31.2034 17.6995C31.8008 17.2017 32.6471 16.9528 33.7423 16.9528H38.2226L22.8402 46.7468H17.3145ZM50.9838 47.1948C48.1463 47.1948 45.6573 46.9708 43.5167 46.5228C41.3761 46.0747 39.6337 45.3031 38.2897 44.2079C36.9456 43.063 36.0246 41.4949 35.5268 39.5036C35.029 37.4626 34.9792 34.9238 35.3775 31.8871C35.8753 28.6016 36.622 25.9632 37.6176 23.9719C38.663 21.9309 39.9822 20.3877 41.5752 19.3423C43.218 18.2471 45.1346 17.5253 47.3249 17.1768C49.5153 16.7785 52.0043 16.5794 54.7921 16.5794C57.6296 16.5794 60.0938 16.8034 62.1846 17.2515C64.3252 17.6995 66.0426 18.496 67.3369 19.641C68.681 20.7361 69.5771 22.2794 70.0251 24.2706C70.5229 26.2618 70.5727 28.8007 70.1744 31.8871C69.6766 35.1727 68.9299 37.8359 67.9343 39.877C66.9387 41.8682 65.6444 43.4114 64.0514 44.5066C62.4584 45.552 60.5667 46.2738 58.3763 46.6721C56.2357 47.0206 53.7716 47.1948 50.9838 47.1948ZM51.5065 41.7438C52.8506 41.7438 53.9956 41.4949 54.9414 40.997C55.9371 40.4495 56.7584 39.4787 57.4056 38.0849C58.0527 36.6412 58.5506 34.5753 58.899 31.8871C59.2973 29.1989 59.3719 27.1579 59.123 25.764C58.8741 24.3204 58.3265 23.3496 57.4803 22.8518C56.6838 22.3042 55.6135 22.0304 54.2694 22.0304C52.9253 22.0304 51.7554 22.3042 50.7598 22.8518C49.7642 23.3496 48.9179 24.3204 48.221 25.764C47.5738 27.1579 47.0511 29.1989 46.6529 31.8871C46.2546 34.5753 46.2048 36.6412 46.5035 38.0849C46.8022 39.4787 47.3747 40.4495 48.221 40.997C49.0673 41.4949 50.1624 41.7438 51.5065 41.7438ZM87.5934 47.1948C84.7558 47.1948 82.2668 46.9708 80.1262 46.5228C77.9856 46.0747 76.2433 45.3031 74.8992 44.2079C73.5551 43.063 72.6341 41.4949 72.1363 39.5036C71.6385 37.4626 71.5887 34.9238 71.987 31.8871C72.4848 28.6016 73.2315 25.9632 74.2271 23.9719C75.2725 21.9309 76.5917 20.3877 78.1847 19.3423C79.8275 18.2471 81.7441 17.5253 83.9344 17.1768C86.1248 16.7785 88.6139 16.5794 91.4016 16.5794C94.2391 16.5794 96.7033 16.8034 98.7941 17.2515C100.935 17.6995 102.652 18.496 103.946 19.641C105.291 20.7361 106.187 22.2794 106.635 24.2706C107.132 26.2618 107.182 28.8007 106.784 31.8871C106.286 35.1727 105.539 37.8359 104.544 39.877C103.548 41.8682 102.254 43.4114 100.661 44.5066C99.0679 45.552 97.1762 46.2738 94.9858 46.6721C92.8453 47.0206 90.3811 47.1948 87.5934 47.1948ZM88.1161 41.7438C89.4601 41.7438 90.6051 41.4949 91.551 40.997C92.5466 40.4495 93.368 39.4787 94.0151 38.0849C94.6623 36.6412 95.1601 34.5753 95.5085 31.8871C95.9068 29.1989 95.9815 27.1579 95.7326 25.764C95.4837 24.3204 94.9361 23.3496 94.0898 22.8518C93.2933 22.3042 92.223 22.0304 90.8789 22.0304C89.5348 22.0304 88.365 22.3042 87.3693 22.8518C86.3737 23.3496 85.5274 24.3204 84.8305 25.764C84.1834 27.1579 83.6606 29.1989 83.2624 31.8871C82.8642 34.5753 82.8144 36.6412 83.1131 38.0849C83.4117 39.4787 83.9842 40.4495 84.8305 40.997C85.6768 41.4949 86.772 41.7438 88.1161 41.7438ZM111.583 46.7468C109.891 46.7468 108.821 46.4979 108.372 46C107.924 45.5022 107.825 44.3822 108.074 42.6398L111.434 18.8196C112.231 18.5209 113.251 18.272 114.496 18.0729C115.74 17.8239 117.084 17.6248 118.528 17.4755C120.021 17.2764 121.515 17.127 123.008 17.0274C124.551 16.8781 125.995 16.8034 127.339 16.8034C129.281 16.8034 130.948 16.9528 132.342 17.2515C133.786 17.5501 134.956 18.1226 135.852 18.9689C136.798 19.8152 137.494 21.0846 137.942 22.7772L136.3 22.7025C136.897 21.4082 137.694 20.3628 138.689 19.5663C139.685 18.7698 140.755 18.1973 141.9 17.8488C143.095 17.4506 144.265 17.1768 145.41 17.0274C146.555 16.8781 147.55 16.8034 148.396 16.8034C151.831 16.8034 154.52 17.1021 156.461 17.6995C158.402 18.2471 159.697 19.2925 160.344 20.8357C160.991 22.3291 161.116 24.4448 160.717 27.1828L158.477 43.0132C158.328 44.1084 158.079 44.9298 157.73 45.4773C157.432 46.0249 156.984 46.3734 156.386 46.5228C155.839 46.6721 155.017 46.7468 153.922 46.7468H146.828C147.326 43.4114 147.799 40.101 148.247 36.8154C148.745 33.4801 149.193 30.1448 149.591 26.8094C149.89 24.868 149.716 23.5986 149.069 23.0012C148.421 22.4038 147.351 22.1051 145.858 22.1051C145.211 22.1051 144.563 22.2047 143.916 22.4038C143.269 22.6029 142.721 22.8767 142.273 23.2252C141.825 23.5737 141.576 23.9968 141.527 24.4946L138.316 46.7468H127.115L130.027 25.988C130.226 24.644 129.977 23.6981 129.281 23.1505C128.584 22.5532 127.538 22.2545 126.144 22.2545C125.348 22.2545 124.651 22.3291 124.054 22.4785C123.456 22.578 122.958 22.7523 122.56 23.0012C122.162 23.2003 121.913 23.5239 121.813 23.9719L118.677 46.7468H111.583Z" fill="black"/>
</g>
<defs>
<clipPath id="clip0_389_5">
<rect width="163.646" height="64" fill="white"/>
</clipPath>
</defs>
</svg>
