<svg width="18" height="13" viewBox="0 0 18 13" fill="none" xmlns="http://www.w3.org/2000/svg">
<path d="M0 4.43182H18V8.56818H0V4.43182Z" fill="#E6E7E8"/>
<path d="M15.1875 0H2.8125C0.948656 0 0 1.45511 0 3.25V4.43182H18V3.25C18 1.45511 17.0513 0 15.1875 0Z" fill="#1B75BB"/>
<path d="M0 9.75C0 11.5449 0.948656 13 2.8125 13H15.1875C17.0513 13 18 11.5449 18 9.75V8.56818H0V9.75Z" fill="#29B473"/>
<path d="M3.22063 3.63734C2.92907 3.63719 2.64951 3.5154 2.4434 3.29877C2.23729 3.08214 2.12151 2.7884 2.12151 2.48211C2.12143 2.17578 2.23718 1.88196 2.4433 1.66526C2.64942 1.44857 2.92903 1.32675 3.22063 1.32659C3.26244 1.32679 3.3036 1.32955 3.3441 1.33486C3.14883 1.21278 2.92587 1.14818 2.69863 1.14784C2.3664 1.15519 2.05014 1.29899 1.81765 1.54841C1.58516 1.79784 1.45496 2.13303 1.45496 2.48211C1.45496 2.8312 1.58516 3.16639 1.81765 3.41582C2.05014 3.66524 2.3664 3.80904 2.69863 3.81639C2.92584 3.81614 3.1488 3.75164 3.3441 3.62966C3.30379 3.63439 3.26263 3.63695 3.22063 3.63734ZM8.05532 1.14666L8.17598 1.40577L8.44879 1.44773L8.25276 1.64952L8.29888 1.93434L8.05532 1.79932L7.81148 1.93434L7.8576 1.64952L7.66129 1.44773L7.9341 1.40577L8.05532 1.14666ZM8.05532 2.08591L8.17598 2.3465L8.44879 2.39023L8.25276 2.59055L8.29888 2.87507L8.05532 2.74034L7.81148 2.87507L7.8576 2.59055L7.66129 2.39023L7.9341 2.3465L8.05532 2.08591ZM8.05532 3.02841L8.17598 3.28841L8.44879 3.32977L8.25276 3.53127L8.29888 3.81609L8.05532 3.68196L7.81148 3.81609L7.8576 3.53127L7.66129 3.32977L7.9341 3.28841L8.05532 3.02841ZM7.04254 1.14666L7.16544 1.40577L7.43741 1.44773L7.24054 1.64952L7.28666 1.93434L7.04254 1.79932L6.80066 1.93434L6.84594 1.64952L6.64963 1.44773L6.9216 1.40577L7.04254 1.14666ZM7.04254 2.08591L7.16544 2.3465L7.43741 2.39023L7.24054 2.59055L7.28666 2.87507L7.04254 2.74034L6.80066 2.87507L6.84594 2.59055L6.64963 2.39023L6.9216 2.3465L7.04254 2.08591ZM7.04254 3.02841L7.16544 3.28841L7.43741 3.32977L7.24054 3.53127L7.28666 3.81609L7.04254 3.68196L6.80066 3.81609L6.84594 3.53127L6.64963 3.32977L6.9216 3.28841L7.04254 3.02841ZM6.03144 1.14666L6.15294 1.40577L6.42576 1.44773L6.22691 1.64952L6.27529 1.93434L6.03144 1.79932L5.78732 1.93434L5.83457 1.64952L5.63629 1.44773L5.9091 1.40577L6.03144 1.14666ZM6.03144 2.08591L6.15294 2.3465L6.42576 2.39023L6.22691 2.59055L6.27529 2.87507L6.03144 2.74034L5.78732 2.87507L5.83457 2.59055L5.63629 2.39023L5.9091 2.3465L6.03144 2.08591ZM6.03144 3.02841L6.15294 3.28841L6.42576 3.32977L6.22691 3.53127L6.27529 3.81609L6.03144 3.68196L5.78732 3.81609L5.83457 3.53127L5.63629 3.32977L5.9091 3.28841L6.03144 3.02841ZM5.01951 2.08591L5.14129 2.3465L5.41354 2.39023L5.21666 2.59055L5.26363 2.87507L5.01951 2.74034L4.77566 2.87507L4.82348 2.59055L4.62491 2.39023L4.89801 2.3465L5.01951 2.08591ZM5.01951 3.02841L5.14129 3.28841L5.41354 3.32977L5.21666 3.53127L5.26363 3.81609L5.01951 3.68196L4.77566 3.81609L4.82348 3.53127L4.62491 3.32977L4.89801 3.28841L5.01951 3.02841ZM4.00223 3.02841L4.12401 3.28841L4.39682 3.32977L4.19966 3.53127L4.24691 3.81609L4.00223 3.68196L3.75838 3.81609L3.80507 3.53127L3.60819 3.32977L3.88044 3.28841L4.00223 3.02841Z" fill="#E6E7E8"/>
<path d="M0 4.43182H18V5.02273H0V4.43182ZM0 8.27273H18V8.86363H0V8.27273Z" fill="#EC1C24"/>
</svg>
