<svg width="76" height="64" viewBox="0 0 76 64" fill="none" xmlns="http://www.w3.org/2000/svg">
<g clip-path="url(#clip0_645_17)">
<path d="M24.682 60C22.2815 60 20.4811 59.5845 19.2808 58.7536C18.0806 57.9226 17.065 55.8453 16.234 52.5215L4.60077 4.60352H26.0669L31.3296 30.9168C31.6989 32.0248 32.022 33.0404 32.299 33.9637C32.576 34.7946 32.9453 35.5332 33.4069 36.1795C33.9609 36.7335 34.6072 37.2874 35.3458 37.8414C37.377 33.1327 39.4082 28.4702 41.4394 23.8538C43.563 19.2374 45.6403 14.621 47.6715 10.0047C48.4102 8.34278 49.3334 7.0502 50.4414 6.12692C51.5493 5.20365 53.1189 4.74201 55.1501 4.74201H63.4595L34.9303 60H24.682Z" fill="black"/>
<path d="M28.8973 60C26.4968 60 24.6964 59.5845 23.4962 58.7536C22.2959 57.9226 21.2803 55.8453 20.4494 52.5215L8.8161 4.60352H30.2822L35.5449 30.9168C35.9142 32.0248 36.2374 33.0404 36.5143 33.9637C36.7913 34.7946 37.1606 35.5332 37.6223 36.1795C38.1762 36.7335 38.8225 37.2874 39.5612 37.8414C41.5924 33.1327 43.6236 28.4702 45.6548 23.8538C47.7783 19.2374 49.8557 14.621 51.8869 10.0047C52.6255 8.34278 53.5488 7.0502 54.6567 6.12692C55.7646 5.20365 57.3342 4.74201 59.3654 4.74201H67.6749L39.1457 60H28.8973Z" fill="#737373"/>
<mask id="path-3-inside-1_645_17" fill="white">
<path d="M33.1127 60C30.7121 60 28.9118 59.5845 27.7115 58.7536C26.5112 57.9226 25.4956 55.8453 24.6647 52.5215L13.0314 4.60352H34.4976L39.7602 30.9168C40.1295 32.0248 40.4527 33.0404 40.7297 33.9637C41.0067 34.7946 41.376 35.5332 41.8376 36.1795C42.3916 36.7335 43.0379 37.2874 43.7765 37.8414C45.8077 33.1327 47.8389 28.4702 49.8701 23.8538C51.9936 19.2374 54.071 14.621 56.1022 10.0047C56.8408 8.34278 57.7641 7.0502 58.872 6.12692C59.98 5.20365 61.5495 4.74201 63.5807 4.74201H71.8902L43.361 60H33.1127Z"/>
</mask>
<path d="M33.1127 60C30.7121 60 28.9118 59.5845 27.7115 58.7536C26.5112 57.9226 25.4956 55.8453 24.6647 52.5215L13.0314 4.60352H34.4976L39.7602 30.9168C40.1295 32.0248 40.4527 33.0404 40.7297 33.9637C41.0067 34.7946 41.376 35.5332 41.8376 36.1795C42.3916 36.7335 43.0379 37.2874 43.7765 37.8414C45.8077 33.1327 47.8389 28.4702 49.8701 23.8538C51.9936 19.2374 54.071 14.621 56.1022 10.0047C56.8408 8.34278 57.7641 7.0502 58.872 6.12692C59.98 5.20365 61.5495 4.74201 63.5807 4.74201H71.8902L43.361 60H33.1127Z" fill="white"/>
<path d="M27.7115 58.7536L27.6546 58.8358V58.8358L27.7115 58.7536ZM24.6647 52.5215L24.5675 52.5451L24.5677 52.5457L24.6647 52.5215ZM13.0314 4.60352V4.50352H12.9043L12.9343 4.62711L13.0314 4.60352ZM34.4976 4.60352L34.5956 4.58391L34.5796 4.50352H34.4976V4.60352ZM39.7602 30.9168L39.6614 30.9366L39.6654 30.9485L39.7602 30.9168ZM40.7297 33.9637L40.6339 33.9924L40.6348 33.9953L40.7297 33.9637ZM41.8376 36.1795L41.7562 36.2376L41.761 36.2444L41.7669 36.2502L41.8376 36.1795ZM43.7765 37.8414L43.7165 37.9214L43.818 37.9976L43.8683 37.881L43.7765 37.8414ZM49.8701 23.8538L49.7792 23.812L49.7786 23.8135L49.8701 23.8538ZM56.1022 10.0047L56.0108 9.96406L56.0107 9.9644L56.1022 10.0047ZM58.872 6.12692L58.808 6.0501V6.0501L58.872 6.12692ZM71.8902 4.74201L71.9791 4.78789L72.0544 4.64201H71.8902V4.74201ZM43.361 60V60.1H43.4219L43.4499 60.0459L43.361 60ZM33.1127 60V59.9C30.7206 59.9 28.9443 59.4854 27.7684 58.6714L27.7115 58.7536L27.6546 58.8358C28.8792 59.6836 30.7037 60.1 33.1127 60.1V60ZM27.7115 58.7536L27.7684 58.6714C27.1883 58.2697 26.6437 57.5598 26.1394 56.5284C25.6358 55.4982 25.1762 54.1552 24.7617 52.4972L24.6647 52.5215L24.5677 52.5457C24.9841 54.2115 25.4478 55.5691 25.9598 56.6163C26.4711 57.6622 27.0345 58.4065 27.6546 58.8358L27.7115 58.7536ZM24.6647 52.5215L24.7619 52.4979L13.1286 4.57993L13.0314 4.60352L12.9343 4.62711L24.5675 52.5451L24.6647 52.5215ZM13.0314 4.60352V4.70352H34.4976V4.60352V4.50352H13.0314V4.60352ZM34.4976 4.60352L34.3995 4.62313L39.6622 30.9365L39.7602 30.9168L39.8583 30.8972L34.5956 4.58391L34.4976 4.60352ZM39.7602 30.9168L39.6654 30.9485C40.0344 32.0556 40.3573 33.0703 40.6339 33.9924L40.7297 33.9637L40.8255 33.9349C40.5481 33.0105 40.2247 31.9939 39.8551 30.8852L39.7602 30.9168ZM40.7297 33.9637L40.6348 33.9953C40.9146 34.8347 41.2882 35.5824 41.7562 36.2376L41.8376 36.1795L41.919 36.1214C41.4637 35.484 41.0987 34.7545 40.8245 33.932L40.7297 33.9637ZM41.8376 36.1795L41.7669 36.2502C42.3247 36.8081 42.9747 37.3651 43.7165 37.9214L43.7765 37.8414L43.8365 37.7614C43.101 37.2098 42.4584 36.6589 41.9083 36.1088L41.8376 36.1795ZM43.7765 37.8414L43.8683 37.881C45.8994 33.1725 47.9305 28.5102 49.9616 23.8941L49.8701 23.8538L49.7786 23.8135C47.7473 28.4301 45.716 33.0929 43.6847 37.8018L43.7765 37.8414ZM49.8701 23.8538L49.9609 23.8956C52.0847 19.2787 54.1623 14.6618 56.1937 10.0449L56.1022 10.0047L56.0107 9.9644C53.9797 14.5803 51.9025 19.1961 49.7792 23.812L49.8701 23.8538ZM56.1022 10.0047L56.1936 10.0453C56.9276 8.39384 57.8426 7.11498 58.936 6.20374L58.872 6.12692L58.808 6.0501C57.6856 6.98541 56.7541 8.29172 56.0108 9.96406L56.1022 10.0047ZM58.872 6.12692L58.936 6.20374C60.0199 5.30054 61.5635 4.84201 63.5807 4.84201V4.74201V4.64201C61.5356 4.64201 59.94 5.10676 58.808 6.0501L58.872 6.12692ZM63.5807 4.74201V4.84201H71.8902V4.74201V4.64201H63.5807V4.74201ZM71.8902 4.74201L71.8013 4.69614L43.2722 59.9541L43.361 60L43.4499 60.0459L71.9791 4.78789L71.8902 4.74201ZM43.361 60V59.9H33.1127V60V60.1H43.361V60Z" fill="black" mask="url(#path-3-inside-1_645_17)"/>
</g>
<defs>
<clipPath id="clip0_645_17">
<rect width="76" height="64" fill="white"/>
</clipPath>
</defs>
</svg>
