<svg width="28" height="30" viewBox="0 0 28 30" fill="none" xmlns="http://www.w3.org/2000/svg">
<path d="M8.77767 6.44453C8.77767 6.23825 8.85961 6.04042 9.00547 5.89455C9.15134 5.74869 9.34917 5.66675 9.55545 5.66675H18.8888C19.0951 5.66675 19.2929 5.74869 19.4388 5.89455C19.5846 6.04042 19.6666 6.23825 19.6666 6.44453C19.6666 6.65081 19.5846 6.84864 19.4388 6.9945C19.2929 7.14036 19.0951 7.2223 18.8888 7.2223H9.55545C9.34917 7.2223 9.15134 7.14036 9.00547 6.9945C8.85961 6.84864 8.77767 6.65081 8.77767 6.44453ZM7.99989 15.0001C7.58733 15.0001 7.19167 15.164 6.89995 15.4557C6.60822 15.7474 6.44434 16.1431 6.44434 16.5556C6.44434 16.9682 6.60822 17.3639 6.89995 17.6556C7.19167 17.9473 7.58733 18.1112 7.99989 18.1112C8.41245 18.1112 8.80811 17.9473 9.09984 17.6556C9.39156 17.3639 9.55545 16.9682 9.55545 16.5556C9.55545 16.1431 9.39156 15.7474 9.09984 15.4557C8.80811 15.164 8.41245 15.0001 7.99989 15.0001ZM20.4443 15.0001C20.0318 15.0001 19.6361 15.164 19.3444 15.4557C19.0527 15.7474 18.8888 16.1431 18.8888 16.5556C18.8888 16.9682 19.0527 17.3639 19.3444 17.6556C19.6361 17.9473 20.0318 18.1112 20.4443 18.1112C20.8569 18.1112 21.2526 17.9473 21.5443 17.6556C21.836 17.3639 21.9999 16.9682 21.9999 16.5556C21.9999 16.1431 21.836 15.7474 21.5443 15.4557C21.2526 15.164 20.8569 15.0001 20.4443 15.0001ZM12.6666 16.5556C12.6666 16.1431 12.8304 15.7474 13.1222 15.4557C13.4139 15.164 13.8096 15.0001 14.2221 15.0001C14.6347 15.0001 15.0303 15.164 15.3221 15.4557C15.6138 15.7474 15.7777 16.1431 15.7777 16.5556C15.7777 16.9682 15.6138 17.3639 15.3221 17.6556C15.0303 17.9473 14.6347 18.1112 14.2221 18.1112C13.8096 18.1112 13.4139 17.9473 13.1222 17.6556C12.8304 17.3639 12.6666 16.9682 12.6666 16.5556ZM7.99989 21.2223C7.58733 21.2223 7.19167 21.3862 6.89995 21.6779C6.60822 21.9696 6.44434 22.3653 6.44434 22.7779C6.44434 23.1904 6.60822 23.5861 6.89995 23.8778C7.19167 24.1695 7.58733 24.3334 7.99989 24.3334C8.41245 24.3334 8.80811 24.1695 9.09984 23.8778C9.39156 23.5861 9.55545 23.1904 9.55545 22.7779C9.55545 22.3653 9.39156 21.9696 9.09984 21.6779C8.80811 21.3862 8.41245 21.2223 7.99989 21.2223ZM12.6666 22.7779C12.6666 22.3653 12.8304 21.9696 13.1222 21.6779C13.4139 21.3862 13.8096 21.2223 14.2221 21.2223C14.6347 21.2223 15.0303 21.3862 15.3221 21.6779C15.6138 21.9696 15.7777 22.3653 15.7777 22.7779C15.7777 23.1904 15.6138 23.5861 15.3221 23.8778C15.0303 24.1695 14.6347 24.3334 14.2221 24.3334C13.8096 24.3334 13.4139 24.1695 13.1222 23.8778C12.8304 23.5861 12.6666 23.1904 12.6666 22.7779Z" fill="#4A4A4A"/>
<path d="M16.7471 0.75C18.4557 0.75 19.7992 0.749769 20.8818 0.837891C21.9829 0.927816 22.9018 1.11363 23.7363 1.53906C25.1008 2.23421 26.2102 3.3445 26.9053 4.70898C27.3288 5.54303 27.5165 6.46122 27.6064 7.5625C27.6946 8.64358 27.6943 9.99024 27.6943 11.6973V18.3027C27.6943 20.0113 27.6946 21.3564 27.6064 22.4375C27.5165 23.5385 27.3307 24.4575 26.9053 25.292C26.2101 26.6563 25.1007 27.7658 23.7363 28.4609H23.7354C22.9013 28.8844 21.9831 29.0722 20.8818 29.1621C19.8007 29.2502 18.4541 29.25 16.7471 29.25H11.6973C9.98867 29.25 8.64511 29.2502 7.5625 29.1621C6.46148 29.0722 5.54248 28.8864 4.70801 28.4609C3.34358 27.7658 2.23417 26.6555 1.53906 25.291C1.11556 24.457 0.92784 23.5388 0.837891 22.4375C0.749768 21.3564 0.75 20.0098 0.75 18.3027V11.6973C0.75 9.98867 0.749771 8.64511 0.837891 7.5625C0.927819 6.46148 1.11364 5.54248 1.53906 4.70801C2.23421 3.34358 3.34453 2.23417 4.70898 1.53906C5.54302 1.11556 6.46123 0.92784 7.5625 0.837891C8.64358 0.749768 9.99024 0.75 11.6973 0.75H16.7471ZM2.80566 18.2666C2.80566 20.0256 2.80532 21.2846 2.88672 22.2705L2.9209 22.6191C3.00668 23.3967 3.14982 23.9234 3.37109 24.3584L3.46777 24.5391C3.96906 25.434 4.72491 26.1619 5.6416 26.6289L5.83398 26.7188C6.2984 26.9182 6.87768 27.0436 7.73145 27.1133C8.71579 27.1947 9.9745 27.1943 11.7334 27.1943H16.7109C18.4699 27.1943 19.7289 27.1947 20.7148 27.1133L21.0635 27.0791C21.841 26.9933 22.3677 26.8502 22.8027 26.6289C23.7804 26.1309 24.5752 25.3361 25.0732 24.3584L25.1631 24.166C25.3626 23.7016 25.4879 23.1223 25.5576 22.2686C25.639 21.2842 25.6387 20.0255 25.6387 18.2666V12.1387H2.80566V18.2666ZM11.7334 2.80566C10.1941 2.80566 9.03785 2.80576 8.1123 2.86035L7.72949 2.88672C6.75394 2.96636 6.1367 3.1173 5.63965 3.37012L5.64062 3.37109C4.72382 3.83812 3.96713 4.56592 3.46582 5.46094L3.36914 5.6416C3.11635 6.13864 2.96537 6.75595 2.88574 7.73145C2.8322 8.37398 2.81492 9.13657 2.80762 10.083H25.6357C25.6294 9.13725 25.6112 8.37555 25.5576 7.73145C25.4879 6.87766 25.3626 6.29841 25.1631 5.83398L25.0732 5.6416C24.5752 4.66395 23.7804 3.86914 22.8027 3.37109C22.3057 3.11831 21.6892 2.96636 20.7139 2.88672H20.7129C19.7286 2.80535 18.4698 2.80566 16.7109 2.80566H11.7334Z" fill="#4A4A4A" stroke="#4A4A4A" stroke-width="0.5"/>
</svg>
