<svg width="100" height="100" viewBox="0 0 100 100" fill="none" xmlns="http://www.w3.org/2000/svg">
<circle cx="50" cy="50" r="50" fill="#252525"/>
<path d="M20.0044 44.3707C19.9398 45.5256 20.5861 46.6017 21.637 47.085L42.7225 56.7568L52.3942 77.8395C52.8551 78.8398 53.8554 79.4777 54.9484 79.4777L55.1086 79.472C55.6726 79.4405 56.2139 79.2396 56.662 78.8958C57.1101 78.5519 57.4442 78.081 57.6207 77.5444L73.3421 29.6861C73.6709 28.6802 73.4067 27.5702 72.6593 26.82C71.9119 26.0697 70.8048 25.814 69.7932 26.1372L21.932 41.8614C21.3959 42.0377 20.9253 42.3714 20.5815 42.8189C20.2377 43.2665 20.0366 43.8072 20.0044 44.3707Z" fill="white"/>
</svg>
