<svg width="144" height="42" viewBox="0 0 144 42" fill="none" xmlns="http://www.w3.org/2000/svg">
<path d="M12.5015 31.2769L23.058 0.996575H33.8922L18.7243 41H0.944954L0.500471 0.996575H11.3903L11.2236 31.2769H12.5015ZM50.3211 0.607651C59.2478 0.607651 63.7112 4.25611 63.7112 11.553C63.7112 12.7754 63.5815 14.0903 63.3223 15.4978L61.3776 26.6099C60.4887 31.7585 58.5626 35.5736 55.5994 38.0553C52.6362 40.537 48.4691 41.7778 43.0983 41.7778C37.7275 41.7778 33.9864 40.537 31.8751 38.0553C30.4306 36.3515 29.7083 33.9994 29.7083 30.9991C29.7083 29.6657 29.8564 28.2026 30.1527 26.6099L32.0974 15.4978C33.8382 5.57104 39.9128 0.607651 50.3211 0.607651ZM44.5984 33.166C46.4504 33.166 47.932 32.6845 49.0433 31.7214C50.1545 30.7584 50.9323 28.9805 51.3768 26.3876L53.2658 15.7201C53.377 14.9793 53.4325 14.3125 53.4325 13.7199C53.4325 10.7196 51.9139 9.2195 48.8766 9.2195C45.0614 9.29358 42.7835 11.4604 42.0427 15.7201L40.1536 26.3876C40.0054 27.3136 39.9314 28.2767 39.9314 29.2768C39.9314 31.8696 41.4871 33.166 44.5984 33.166ZM84.4386 0.607651C93.3653 0.607651 97.8287 4.25611 97.8287 11.553C97.8287 12.7754 97.699 14.0903 97.4398 15.4978L95.4951 26.6099C94.6062 31.7585 92.6801 35.5736 89.7169 38.0553C86.7537 40.537 82.5866 41.7778 77.2158 41.7778C71.845 41.7778 68.1039 40.537 65.9926 38.0553C64.5481 36.3515 63.8258 33.9994 63.8258 30.9991C63.8258 29.6657 63.9739 28.2026 64.2702 26.6099L66.2149 15.4978C67.9557 5.57104 74.0303 0.607651 84.4386 0.607651ZM78.7159 33.166C80.5679 33.166 82.0495 32.6845 83.1608 31.7214C84.272 30.7584 85.0498 28.9805 85.4943 26.3876L87.3833 15.7201C87.4945 14.9793 87.55 14.3125 87.55 13.7199C87.55 10.7196 86.0314 9.2195 82.9941 9.2195C79.1789 9.29358 76.901 11.4604 76.1602 15.7201L74.2711 26.3876C74.1229 27.3136 74.0489 28.2767 74.0489 29.2768C74.0489 31.8696 75.6046 33.166 78.7159 33.166ZM114.445 0.996575L120.39 20.1649L133.169 0.996575H143.669L136.613 41H126.557L130.557 18.4425L122.001 31.8881H114.722L110.944 18.4425L106.944 41H96.9432L103.999 0.996575H114.445Z" fill="url(#paint0_linear_11_10)"/>
<defs>
<linearGradient id="paint0_linear_11_10" x1="-5" y1="24" x2="144" y2="24" gradientUnits="userSpaceOnUse">
<stop stop-color="#862A8B"/>
<stop offset="0.630472" stop-color="#DB1A5B"/>
<stop offset="1" stop-color="#E71854"/>
</linearGradient>
</defs>
</svg>
