<svg width="21" height="30" viewBox="0 0 21 30" fill="none" xmlns="http://www.w3.org/2000/svg">
<path d="M11.6885 0.75C12.4413 0.75 13.0919 1.02331 13.626 1.5625C14.1598 2.10151 14.4305 2.756 14.4316 3.51172V6.01562H17.5068C18.2597 6.01562 18.9101 6.28885 19.4443 6.82715C19.9791 7.36617 20.2499 8.02065 20.25 8.77734V24.9326C20.2499 25.6894 19.9794 26.3438 19.4443 26.8818C18.9697 27.3591 18.4045 27.6272 17.7588 27.6826V27.8018C17.7588 28.1924 17.6118 28.5354 17.3311 28.8184C17.0502 29.1014 16.7089 29.25 16.3193 29.25C15.93 29.2499 15.5893 29.1013 15.3086 28.8184C15.0277 28.5353 14.8816 28.1926 14.8828 27.8018V27.6943H6.11914V27.8018C6.11914 28.1924 5.97221 28.5354 5.69141 28.8184C5.41066 29.1013 5.06999 29.2499 4.68066 29.25C4.29111 29.25 3.94989 29.1017 3.66992 28.8184C3.39041 28.5355 3.24441 28.1928 3.24316 27.8027V27.6826C2.59534 27.6279 2.0295 27.3602 1.55566 26.8818C1.02186 26.3428 0.751133 25.6884 0.75 24.9326V8.77734C0.750103 8.02059 1.02063 7.3662 1.55566 6.82812C2.0897 6.28791 2.74019 6.01367 3.49316 6.01367H6.56934V3.5127C6.56934 2.75586 6.83988 2.10074 7.37402 1.5625C7.90801 1.02447 8.5581 0.751239 9.31055 0.75H11.6885ZM3.49512 8.07129C3.2766 8.07129 3.11449 8.13942 2.98828 8.2666C2.86189 8.39401 2.79403 8.55714 2.79395 8.77734V24.9326C2.79403 25.1528 2.8619 25.3159 2.98828 25.4434C3.11449 25.5705 3.2766 25.6387 3.49512 25.6387H17.5068C17.724 25.6387 17.8853 25.5707 18.0117 25.4434C18.1381 25.3159 18.206 25.1528 18.2061 24.9326V8.77734C18.206 8.55579 18.1384 8.3926 18.0127 8.2666H18.0117C17.8855 8.13942 17.7234 8.07129 17.5049 8.07129H3.49512ZM7.59082 10.3232C7.87102 10.3246 8.11809 10.4232 8.31543 10.6191C8.51442 10.8169 8.61326 11.0669 8.61328 11.3506V22.3604C8.61196 22.642 8.51473 22.8906 8.31934 23.0889C8.1229 23.2881 7.87443 23.3867 7.5918 23.3867C7.30907 23.3867 7.06057 23.2877 6.86328 23.0889H6.8623C6.66662 22.8903 6.56935 22.6413 6.56934 22.3594V11.3506C6.56935 11.0673 6.66655 10.8174 6.86328 10.6191C7.05982 10.4212 7.30783 10.3233 7.58984 10.3232H7.59082ZM13.4082 10.3232C13.6905 10.3232 13.9386 10.4219 14.1357 10.6201C14.3335 10.818 14.4316 11.0674 14.4316 11.3506V22.3584L14.4277 22.4629C14.4071 22.7032 14.3103 22.9161 14.1367 23.0898C13.9392 23.2875 13.6914 23.3867 13.4102 23.3867C13.1288 23.3867 12.8812 23.2875 12.6836 23.0898C12.4854 22.8915 12.3867 22.6424 12.3867 22.3594V11.3506C12.3867 11.0675 12.484 10.818 12.6816 10.6201C12.8779 10.4215 13.126 10.3233 13.4082 10.3232ZM9.3125 2.80566C9.09426 2.80574 8.93349 2.8735 8.80859 3L8.80762 3.00098C8.68147 3.12824 8.6133 3.29209 8.61328 3.51367V6.01367H12.3877V3.51367C12.3877 3.29324 12.3199 3.12945 12.1934 3.00195C12.0985 2.90649 11.9836 2.8439 11.8398 2.81836L11.6865 2.80566H9.3125Z" fill="#4A4A4A" stroke="#4A4A4A" stroke-width="0.5"/>
</svg>
