<svg width="27" height="27" viewBox="0 0 27 27" fill="none" xmlns="http://www.w3.org/2000/svg">
<path d="M5.43799 13.2592C5.43799 12.9485 5.5614 12.6506 5.78107 12.4309C6.00074 12.2113 6.29867 12.0879 6.60933 12.0879H12.0647V6.63252C12.0647 6.32187 12.1881 6.02393 12.4077 5.80426C12.6274 5.58459 12.9254 5.46118 13.236 5.46118C13.5467 5.46118 13.8446 5.58459 14.0643 5.80426C14.2839 6.02393 14.4074 6.32187 14.4074 6.63252V12.0879H19.8627C20.1733 12.0879 20.4713 12.2113 20.691 12.4309C20.9106 12.6506 21.034 12.9485 21.034 13.2592C21.034 13.5699 20.9106 13.8678 20.691 14.0875C20.4713 14.3071 20.1733 14.4305 19.8627 14.4305H14.4074V19.8859C14.4074 20.1965 14.2839 20.4945 14.0643 20.7141C13.8446 20.9338 13.5467 21.0572 13.236 21.0572C12.9254 21.0572 12.6274 20.9338 12.4077 20.7141C12.1881 20.4945 12.0647 20.1965 12.0647 19.8859V14.4305H6.60933C6.29867 14.4305 6.00074 14.3071 5.78107 14.0875C5.5614 13.8678 5.43799 13.5699 5.43799 13.2592Z" fill="black"/>
<path fill-rule="evenodd" clip-rule="evenodd" d="M5.92271 0.404182C10.7837 -0.134727 15.6894 -0.134727 20.5504 0.404182C23.4038 0.722787 25.7075 2.9702 26.0417 5.83921C26.6196 10.7698 26.6196 15.7503 26.0417 20.6809C25.7059 23.5499 23.4023 25.7958 20.5504 26.1159C15.6894 26.6549 10.7837 26.6549 5.92271 26.1159C3.06932 25.7958 0.765679 23.5499 0.431456 20.6809C-0.143819 15.7504 -0.143819 10.7697 0.431456 5.83921C0.765679 2.9702 3.07088 0.722787 5.92271 0.404182ZM20.2912 2.73125C15.6025 2.21153 10.8707 2.21153 6.18197 2.73125C5.31399 2.82754 4.50383 3.21365 3.88235 3.82718C3.26088 4.44072 2.8644 5.24586 2.75696 6.11253C2.20148 10.8619 2.20148 15.6598 2.75696 20.4092C2.86473 21.2755 3.26135 22.0803 3.8828 22.6936C4.50424 23.3068 5.31423 23.6927 6.18197 23.7889C10.8314 24.3074 15.6417 24.3074 20.2912 23.7889C21.1587 23.6923 21.9683 23.3063 22.5894 22.6931C23.2105 22.0799 23.6069 21.2753 23.7146 20.4092C24.2701 15.6598 24.2701 10.8619 23.7146 6.11253C23.6066 5.24666 23.2101 4.44242 22.589 3.82954C21.9679 3.21665 21.1584 2.83086 20.2912 2.73437" fill="black"/>
</svg>
