<svg width="23" height="30" viewBox="0 0 23 30" fill="none" xmlns="http://www.w3.org/2000/svg">
<path d="M21.125 27C21.4234 27 21.7099 27.1181 21.9209 27.3291C22.1319 27.5401 22.25 27.8266 22.25 28.125C22.25 28.4234 22.1319 28.7099 21.9209 28.9209C21.7099 29.1319 21.4234 29.25 21.125 29.25H1.875C1.57663 29.25 1.29008 29.1319 1.0791 28.9209C0.868123 28.7099 0.75 28.4234 0.75 28.125C0.75 27.8266 0.868123 27.5401 1.0791 27.3291C1.29008 27.1181 1.57663 27 1.875 27H21.125ZM11.5 5.99805C11.648 5.99805 11.795 6.02727 11.9316 6.08398C12.0682 6.1407 12.1924 6.2244 12.2969 6.3291H12.2959L15.7959 9.8291C15.9005 9.93367 15.9834 10.0577 16.04 10.1943C16.0966 10.3309 16.126 10.4772 16.126 10.625L16.1211 10.7354C16.1103 10.8454 16.0825 10.9532 16.04 11.0557C15.9834 11.1923 15.9005 11.3163 15.7959 11.4209C15.6913 11.5255 15.5673 11.6084 15.4307 11.665C15.2941 11.7216 15.1478 11.751 15 11.751C14.8522 11.751 14.7059 11.7216 14.5693 11.665C14.4327 11.6084 14.3087 11.5255 14.2041 11.4209L12.625 9.84082V20.1582L14.2041 18.5791C14.4153 18.3679 14.7013 18.249 15 18.249C15.2987 18.249 15.5847 18.3679 15.7959 18.5791C16.0071 18.7903 16.126 19.0763 16.126 19.375C16.126 19.6737 16.0071 19.9597 15.7959 20.1709L12.2959 23.6699L12.2969 23.6709C12.1924 23.7756 12.0682 23.8593 11.9316 23.916C11.795 23.9727 11.648 24.002 11.5 24.002C11.352 24.002 11.205 23.9727 11.0684 23.916C10.9318 23.8593 10.8076 23.7756 10.7031 23.6709V23.6699L7.2041 20.1709C6.99292 19.9597 6.87402 19.6737 6.87402 19.375C6.87402 19.0763 6.99292 18.7903 7.2041 18.5791C7.41529 18.3679 7.70134 18.249 8 18.249L8.11133 18.2549C8.36909 18.2805 8.61113 18.3943 8.7959 18.5791L10.375 20.1582V9.84082L8.7959 11.4209C8.58471 11.6321 8.29866 11.751 8 11.751C7.70134 11.751 7.41529 11.6321 7.2041 11.4209C6.99292 11.2097 6.87402 10.9237 6.87402 10.625C6.87402 10.3263 6.99292 10.0403 7.2041 9.8291L10.7031 6.3291L10.7852 6.25488C10.8706 6.18457 10.9658 6.12657 11.0684 6.08398C11.205 6.02727 11.352 5.99805 11.5 5.99805ZM21.125 0.75C21.4234 0.75 21.7099 0.868123 21.9209 1.0791C22.1319 1.29008 22.25 1.57663 22.25 1.875C22.25 2.17337 22.1319 2.45992 21.9209 2.6709C21.7099 2.88188 21.4234 3 21.125 3H1.875C1.57663 3 1.29008 2.88188 1.0791 2.6709C0.868123 2.45992 0.75 2.17337 0.75 1.875C0.75 1.57663 0.868123 1.29008 1.0791 1.0791C1.29008 0.868123 1.57663 0.75 1.875 0.75H21.125Z" fill="#4A4A4A" stroke="#4A4A4A" stroke-width="0.5"/>
</svg>
