<svg width="76" height="64" viewBox="0 0 76 64" fill="none" xmlns="http://www.w3.org/2000/svg">
<g clip-path="url(#clip0_390_673)">
<path d="M24.682 60C22.2815 60 20.4811 59.5845 19.2808 58.7536C18.0806 57.9226 17.065 55.8453 16.234 52.5215L4.60077 4.60352H26.0669L31.3296 30.9168C31.6989 32.0248 32.022 33.0404 32.299 33.9637C32.576 34.7946 32.9453 35.5332 33.4069 36.1795C33.9609 36.7335 34.6072 37.2874 35.3458 37.8414C37.377 33.1327 39.4082 28.4702 41.4394 23.8538C43.563 19.2374 45.6403 14.621 47.6715 10.0047C48.4102 8.34278 49.3334 7.0502 50.4414 6.12692C51.5493 5.20365 53.1189 4.74201 55.1501 4.74201H63.4595L34.9303 60H24.682Z" fill="#2B8659"/>
<path d="M28.8973 60C26.4968 60 24.6964 59.5845 23.4962 58.7536C22.2959 57.9226 21.2803 55.8453 20.4494 52.5215L8.8161 4.60352H30.2822L35.5449 30.9168C35.9142 32.0248 36.2374 33.0404 36.5143 33.9637C36.7913 34.7946 37.1606 35.5332 37.6223 36.1795C38.1762 36.7335 38.8225 37.2874 39.5612 37.8414C41.5924 33.1327 43.6236 28.4702 45.6548 23.8538C47.7783 19.2374 49.8557 14.621 51.8869 10.0047C52.6255 8.34278 53.5488 7.0502 54.6567 6.12692C55.7646 5.20365 57.3342 4.74201 59.3654 4.74201H67.6749L39.1457 60H28.8973Z" fill="#32BB78"/>
<path d="M33.1127 60C30.7121 60 28.9118 59.5845 27.7115 58.7536C26.5112 57.9226 25.4956 55.8453 24.6647 52.5215L13.0314 4.60352H34.4976L39.7602 30.9168C40.1295 32.0248 40.4527 33.0404 40.7297 33.9637C41.0067 34.7946 41.376 35.5332 41.8376 36.1795C42.3916 36.7335 43.0379 37.2874 43.7765 37.8414C45.8077 33.1327 47.8389 28.4702 49.8701 23.8538C51.9936 19.2374 54.071 14.621 56.1022 10.0047C56.8408 8.34278 57.7641 7.0502 58.872 6.12692C59.98 5.20365 61.5495 4.74201 63.5807 4.74201H71.8902L43.361 60H33.1127Z" fill="black"/>
</g>
<defs>
<clipPath id="clip0_390_673">
<rect width="76" height="64" fill="white"/>
</clipPath>
</defs>
</svg>
