<svg width="171" height="171" viewBox="0 0 171 171" fill="none" xmlns="http://www.w3.org/2000/svg">
<g clip-path="url(#clip0_111_99)">
<path d="M171 0H0V171H171V0Z" fill="white"/>
<mask id="mask0_111_99" style="mask-type:luminance" maskUnits="userSpaceOnUse" x="4" y="4" width="163" height="163">
<path d="M10.6025 62.5864H4.10449V69.0844H10.6025V62.5864Z" fill="white"/>
<path d="M10.6025 75.5825H4.10449V82.0805H10.6025V75.5825Z" fill="white"/>
<path d="M10.6025 82.0801H4.10449V88.5781H10.6025V82.0801Z" fill="white"/>
<path d="M10.6025 88.5781H4.10449V95.0761H10.6025V88.5781Z" fill="white"/>
<path d="M17.1005 56.0879H10.6025V62.5859H17.1005V56.0879Z" fill="white"/>
<path d="M17.1005 69.0845H10.6025V75.5825H17.1005V69.0845Z" fill="white"/>
<path d="M17.1005 88.5781H10.6025V95.0761H17.1005V88.5781Z" fill="white"/>
<path d="M23.5986 88.5781H17.1006V95.0761H23.5986V88.5781Z" fill="white"/>
<path d="M23.5986 95.0757H17.1006V101.574H23.5986V95.0757Z" fill="white"/>
<path d="M30.0966 56.0879H23.5986V62.5859H30.0966V56.0879Z" fill="white"/>
<path d="M30.0966 62.5864H23.5986V69.0844H30.0966V62.5864Z" fill="white"/>
<path d="M30.0966 69.0845H23.5986V75.5825H30.0966V69.0845Z" fill="white"/>
<path d="M30.0966 75.5825H23.5986V82.0805H30.0966V75.5825Z" fill="white"/>
<path d="M30.0966 82.0801H23.5986V88.5781H30.0966V82.0801Z" fill="white"/>
<path d="M30.0966 88.5781H23.5986V95.0761H30.0966V88.5781Z" fill="white"/>
<path d="M30.0966 101.574H23.5986V108.072H30.0966V101.574Z" fill="white"/>
<path d="M30.0966 108.072H23.5986V114.57H30.0966V108.072Z" fill="white"/>
<path d="M36.5937 56.0879H30.0957V62.5859H36.5937V56.0879Z" fill="white"/>
<path d="M36.5937 88.5781H30.0957V95.0761H36.5937V88.5781Z" fill="white"/>
<path d="M43.0918 62.5864H36.5938V69.0844H43.0918V62.5864Z" fill="white"/>
<path d="M43.0918 82.0801H36.5938V88.5781H43.0918V82.0801Z" fill="white"/>
<path d="M43.0918 88.5781H36.5938V95.0761H43.0918V88.5781Z" fill="white"/>
<path d="M49.5898 56.0879H43.0918V62.5859H49.5898V56.0879Z" fill="white"/>
<path d="M49.5898 69.0845H43.0918V75.5825H49.5898V69.0845Z" fill="white"/>
<path d="M49.5898 82.0801H43.0918V88.5781H49.5898V82.0801Z" fill="white"/>
<path d="M49.5898 95.0757H43.0918V101.574H49.5898V95.0757Z" fill="white"/>
<path d="M49.5898 108.072H43.0918V114.57H49.5898V108.072Z" fill="white"/>
<path d="M56.0878 56.0879H49.5898V62.5859H56.0878V56.0879Z" fill="white"/>
<path d="M56.0878 62.5864H49.5898V69.0844H56.0878V62.5864Z" fill="white"/>
<path d="M56.0878 82.0801H49.5898V88.5781H56.0878V82.0801Z" fill="white"/>
<path d="M56.0878 88.5781H49.5898V95.0761H56.0878V88.5781Z" fill="white"/>
<path d="M56.0878 95.0757H49.5898V101.574H56.0878V95.0757Z" fill="white"/>
<path d="M56.0878 108.072H49.5898V114.57H56.0878V108.072Z" fill="white"/>
<path d="M62.5859 10.6016H56.0879V17.0996H62.5859V10.6016Z" fill="white"/>
<path d="M62.5859 23.5977H56.0879V30.0957H62.5859V23.5977Z" fill="white"/>
<path d="M62.5859 30.0957H56.0879V36.5937H62.5859V30.0957Z" fill="white"/>
<path d="M62.5859 36.5942H56.0879V43.0922H62.5859V36.5942Z" fill="white"/>
<path d="M62.5859 43.0918H56.0879V49.5898H62.5859V43.0918Z" fill="white"/>
<path d="M62.5859 56.0879H56.0879V62.5859H62.5859V56.0879Z" fill="white"/>
<path d="M62.5859 82.0801H56.0879V88.5781H62.5859V82.0801Z" fill="white"/>
<path d="M62.5859 108.072H56.0879V114.57H62.5859V108.072Z" fill="white"/>
<path d="M62.5859 114.57H56.0879V121.068H62.5859V114.57Z" fill="white"/>
<path d="M62.5859 121.068H56.0879V127.566H62.5859V121.068Z" fill="white"/>
<path d="M62.5859 134.064H56.0879V140.562H62.5859V134.064Z" fill="white"/>
<path d="M62.5859 140.562H56.0879V147.061H62.5859V140.562Z" fill="white"/>
<path d="M62.5859 153.558H56.0879V160.056H62.5859V153.558Z" fill="white"/>
<path d="M69.083 4.104H62.585V10.602H69.083V4.104Z" fill="white"/>
<path d="M69.083 10.6016H62.585V17.0996H69.083V10.6016Z" fill="white"/>
<path d="M69.083 17.0996H62.585V23.5976H69.083V17.0996Z" fill="white"/>
<path d="M69.083 36.5942H62.585V43.0922H69.083V36.5942Z" fill="white"/>
<path d="M69.083 49.5898H62.585V56.0878H69.083V49.5898Z" fill="white"/>
<path d="M69.083 69.0845H62.585V75.5825H69.083V69.0845Z" fill="white"/>
<path d="M69.083 75.5825H62.585V82.0805H69.083V75.5825Z" fill="white"/>
<path d="M69.083 82.0801H62.585V88.5781H69.083V82.0801Z" fill="white"/>
<path d="M69.083 88.5781H62.585V95.0761H69.083V88.5781Z" fill="white"/>
<path d="M69.083 95.0757H62.585V101.574H69.083V95.0757Z" fill="white"/>
<path d="M69.083 101.574H62.585V108.072H69.083V101.574Z" fill="white"/>
<path d="M69.083 114.57H62.585V121.068H69.083V114.57Z" fill="white"/>
<path d="M69.083 127.566H62.585V134.064H69.083V127.566Z" fill="white"/>
<path d="M69.083 134.064H62.585V140.562H69.083V134.064Z" fill="white"/>
<path d="M69.083 140.562H62.585V147.061H69.083V140.562Z" fill="white"/>
<path d="M69.083 147.06H62.585V153.558H69.083V147.06Z" fill="white"/>
<path d="M69.083 153.558H62.585V160.056H69.083V153.558Z" fill="white"/>
<path d="M75.582 17.0996H69.084V23.5976H75.582V17.0996Z" fill="white"/>
<path d="M75.582 23.5977H69.084V30.0957H75.582V23.5977Z" fill="white"/>
<path d="M75.582 30.0957H69.084V36.5937H75.582V30.0957Z" fill="white"/>
<path d="M75.582 36.5942H69.084V43.0922H75.582V36.5942Z" fill="white"/>
<path d="M75.582 43.0918H69.084V49.5898H75.582V43.0918Z" fill="white"/>
<path d="M75.582 56.0879H69.084V62.5859H75.582V56.0879Z" fill="white"/>
<path d="M75.582 69.0845H69.084V75.5825H75.582V69.0845Z" fill="white"/>
<path d="M75.582 75.5825H69.084V82.0805H75.582V75.5825Z" fill="white"/>
<path d="M75.582 82.0801H69.084V88.5781H75.582V82.0801Z" fill="white"/>
<path d="M75.582 88.5781H69.084V95.0761H75.582V88.5781Z" fill="white"/>
<path d="M75.582 101.574H69.084V108.072H75.582V101.574Z" fill="white"/>
<path d="M75.582 108.072H69.084V114.57H75.582V108.072Z" fill="white"/>
<path d="M75.582 121.068H69.084V127.566H75.582V121.068Z" fill="white"/>
<path d="M75.582 127.566H69.084V134.064H75.582V127.566Z" fill="white"/>
<path d="M75.582 140.562H69.084V147.061H75.582V140.562Z" fill="white"/>
<path d="M75.582 160.056H69.084V166.554H75.582V160.056Z" fill="white"/>
<path d="M82.0791 17.0996H75.5811V23.5976H82.0791V17.0996Z" fill="white"/>
<path d="M82.0791 23.5977H75.5811V30.0957H82.0791V23.5977Z" fill="white"/>
<path d="M82.0791 62.5864H75.5811V69.0844H82.0791V62.5864Z" fill="white"/>
<path d="M82.0791 75.5825H75.5811V82.0805H82.0791V75.5825Z" fill="white"/>
<path d="M82.0791 82.0801H75.5811V88.5781H82.0791V82.0801Z" fill="white"/>
<path d="M82.0791 95.0757H75.5811V101.574H82.0791V95.0757Z" fill="white"/>
<path d="M82.0791 101.574H75.5811V108.072H82.0791V101.574Z" fill="white"/>
<path d="M82.0791 127.566H75.5811V134.064H82.0791V127.566Z" fill="white"/>
<path d="M82.0791 140.562H75.5811V147.061H82.0791V140.562Z" fill="white"/>
<path d="M82.0791 147.06H75.5811V153.558H82.0791V147.06Z" fill="white"/>
<path d="M82.0791 153.558H75.5811V160.056H82.0791V153.558Z" fill="white"/>
<path d="M82.0791 160.056H75.5811V166.554H82.0791V160.056Z" fill="white"/>
<path d="M88.5781 4.104H82.0801V10.602H88.5781V4.104Z" fill="white"/>
<path d="M88.5781 10.6016H82.0801V17.0996H88.5781V10.6016Z" fill="white"/>
<path d="M88.5781 23.5977H82.0801V30.0957H88.5781V23.5977Z" fill="white"/>
<path d="M88.5781 30.0957H82.0801V36.5937H88.5781V30.0957Z" fill="white"/>
<path d="M88.5781 36.5942H82.0801V43.0922H88.5781V36.5942Z" fill="white"/>
<path d="M88.5781 43.0918H82.0801V49.5898H88.5781V43.0918Z" fill="white"/>
<path d="M88.5781 56.0879H82.0801V62.5859H88.5781V56.0879Z" fill="white"/>
<path d="M88.5781 62.5864H82.0801V69.0844H88.5781V62.5864Z" fill="white"/>
<path d="M88.5781 69.0845H82.0801V75.5825H88.5781V69.0845Z" fill="white"/>
<path d="M88.5781 75.5825H82.0801V82.0805H88.5781V75.5825Z" fill="white"/>
<path d="M88.5781 82.0801H82.0801V88.5781H88.5781V82.0801Z" fill="white"/>
<path d="M88.5781 88.5781H82.0801V95.0761H88.5781V88.5781Z" fill="white"/>
<path d="M88.5781 95.0757H82.0801V101.574H88.5781V95.0757Z" fill="white"/>
<path d="M88.5781 108.072H82.0801V114.57H88.5781V108.072Z" fill="white"/>
<path d="M88.5781 121.068H82.0801V127.566H88.5781V121.068Z" fill="white"/>
<path d="M88.5781 160.056H82.0801V166.554H88.5781V160.056Z" fill="white"/>
<path d="M95.0751 4.104H88.5771V10.602H95.0751V4.104Z" fill="white"/>
<path d="M95.0751 10.6016H88.5771V17.0996H95.0751V10.6016Z" fill="white"/>
<path d="M95.0751 49.5898H88.5771V56.0878H95.0751V49.5898Z" fill="white"/>
<path d="M95.0751 69.0845H88.5771V75.5825H95.0751V69.0845Z" fill="white"/>
<path d="M95.0751 75.5825H88.5771V82.0805H95.0751V75.5825Z" fill="white"/>
<path d="M95.0751 95.0757H88.5771V101.574H95.0751V95.0757Z" fill="white"/>
<path d="M95.0751 101.574H88.5771V108.072H95.0751V101.574Z" fill="white"/>
<path d="M95.0751 108.072H88.5771V114.57H95.0751V108.072Z" fill="white"/>
<path d="M95.0751 114.57H88.5771V121.068H95.0751V114.57Z" fill="white"/>
<path d="M95.0751 134.064H88.5771V140.562H95.0751V134.064Z" fill="white"/>
<path d="M95.0751 153.558H88.5771V160.056H95.0751V153.558Z" fill="white"/>
<path d="M101.574 4.104H95.0762V10.602H101.574V4.104Z" fill="white"/>
<path d="M101.574 10.6016H95.0762V17.0996H101.574V10.6016Z" fill="white"/>
<path d="M101.574 23.5977H95.0762V30.0957H101.574V23.5977Z" fill="white"/>
<path d="M101.574 43.0918H95.0762V49.5898H101.574V43.0918Z" fill="white"/>
<path d="M101.574 49.5898H95.0762V56.0878H101.574V49.5898Z" fill="white"/>
<path d="M101.574 88.5781H95.0762V95.0761H101.574V88.5781Z" fill="white"/>
<path d="M101.574 95.0757H95.0762V101.574H101.574V95.0757Z" fill="white"/>
<path d="M101.574 101.574H95.0762V108.072H101.574V101.574Z" fill="white"/>
<path d="M101.574 114.57H95.0762V121.068H101.574V114.57Z" fill="white"/>
<path d="M101.574 121.068H95.0762V127.566H101.574V121.068Z" fill="white"/>
<path d="M101.574 134.064H95.0762V140.562H101.574V134.064Z" fill="white"/>
<path d="M101.574 140.562H95.0762V147.061H101.574V140.562Z" fill="white"/>
<path d="M101.574 147.06H95.0762V153.558H101.574V147.06Z" fill="white"/>
<path d="M101.574 153.558H95.0762V160.056H101.574V153.558Z" fill="white"/>
<path d="M101.574 160.056H95.0762V166.554H101.574V160.056Z" fill="white"/>
<path d="M108.072 4.104H101.574V10.602H108.072V4.104Z" fill="white"/>
<path d="M108.072 17.0996H101.574V23.5976H108.072V17.0996Z" fill="white"/>
<path d="M108.072 30.0957H101.574V36.5937H108.072V30.0957Z" fill="white"/>
<path d="M108.072 36.5942H101.574V43.0922H108.072V36.5942Z" fill="white"/>
<path d="M108.072 69.0845H101.574V75.5825H108.072V69.0845Z" fill="white"/>
<path d="M108.072 75.5825H101.574V82.0805H108.072V75.5825Z" fill="white"/>
<path d="M108.072 88.5781H101.574V95.0761H108.072V88.5781Z" fill="white"/>
<path d="M108.072 101.574H101.574V108.072H108.072V101.574Z" fill="white"/>
<path d="M108.072 114.57H101.574V121.068H108.072V114.57Z" fill="white"/>
<path d="M108.072 127.566H101.574V134.064H108.072V127.566Z" fill="white"/>
<path d="M108.072 140.562H101.574V147.061H108.072V140.562Z" fill="white"/>
<path d="M108.072 147.06H101.574V153.558H108.072V147.06Z" fill="white"/>
<path d="M108.072 160.056H101.574V166.554H108.072V160.056Z" fill="white"/>
<path d="M114.57 4.104H108.072V10.602H114.57V4.104Z" fill="white"/>
<path d="M114.57 17.0996H108.072V23.5976H114.57V17.0996Z" fill="white"/>
<path d="M114.57 30.0957H108.072V36.5937H114.57V30.0957Z" fill="white"/>
<path d="M114.57 36.5942H108.072V43.0922H114.57V36.5942Z" fill="white"/>
<path d="M114.57 43.0918H108.072V49.5898H114.57V43.0918Z" fill="white"/>
<path d="M114.57 49.5898H108.072V56.0878H114.57V49.5898Z" fill="white"/>
<path d="M114.57 75.5825H108.072V82.0805H114.57V75.5825Z" fill="white"/>
<path d="M114.57 82.0801H108.072V88.5781H114.57V82.0801Z" fill="white"/>
<path d="M114.57 95.0757H108.072V101.574H114.57V95.0757Z" fill="white"/>
<path d="M114.57 108.072H108.072V114.57H114.57V108.072Z" fill="white"/>
<path d="M114.57 114.57H108.072V121.068H114.57V114.57Z" fill="white"/>
<path d="M114.57 121.068H108.072V127.566H114.57V121.068Z" fill="white"/>
<path d="M114.57 127.566H108.072V134.064H114.57V127.566Z" fill="white"/>
<path d="M114.57 134.064H108.072V140.562H114.57V134.064Z" fill="white"/>
<path d="M114.57 147.06H108.072V153.558H114.57V147.06Z" fill="white"/>
<path d="M114.57 153.558H108.072V160.056H114.57V153.558Z" fill="white"/>
<path d="M121.068 56.0879H114.57V62.5859H121.068V56.0879Z" fill="white"/>
<path d="M121.068 62.5864H114.57V69.0844H121.068V62.5864Z" fill="white"/>
<path d="M121.068 75.5825H114.57V82.0805H121.068V75.5825Z" fill="white"/>
<path d="M121.068 82.0801H114.57V88.5781H121.068V82.0801Z" fill="white"/>
<path d="M121.068 95.0757H114.57V101.574H121.068V95.0757Z" fill="white"/>
<path d="M121.068 108.072H114.57V114.57H121.068V108.072Z" fill="white"/>
<path d="M121.068 134.064H114.57V140.562H121.068V134.064Z" fill="white"/>
<path d="M121.068 147.06H114.57V153.558H121.068V147.06Z" fill="white"/>
<path d="M121.068 153.558H114.57V160.056H121.068V153.558Z" fill="white"/>
<path d="M127.565 108.072H121.067V114.57H127.565V108.072Z" fill="white"/>
<path d="M127.565 121.068H121.067V127.566H127.565V121.068Z" fill="white"/>
<path d="M127.565 134.064H121.067V140.562H127.565V134.064Z" fill="white"/>
<path d="M127.565 160.056H121.067V166.554H127.565V160.056Z" fill="white"/>
<path d="M134.064 56.0879H127.566V62.5859H134.064V56.0879Z" fill="white"/>
<path d="M134.064 82.0801H127.566V88.5781H134.064V82.0801Z" fill="white"/>
<path d="M134.064 88.5781H127.566V95.0761H134.064V88.5781Z" fill="white"/>
<path d="M134.064 95.0757H127.566V101.574H134.064V95.0757Z" fill="white"/>
<path d="M134.064 101.574H127.566V108.072H134.064V101.574Z" fill="white"/>
<path d="M134.064 108.072H127.566V114.57H134.064V108.072Z" fill="white"/>
<path d="M134.064 134.064H127.566V140.562H134.064V134.064Z" fill="white"/>
<path d="M134.064 160.056H127.566V166.554H134.064V160.056Z" fill="white"/>
<path d="M140.561 56.0879H134.063V62.5859H140.561V56.0879Z" fill="white"/>
<path d="M140.561 69.0845H134.063V75.5825H140.561V69.0845Z" fill="white"/>
<path d="M140.561 75.5825H134.063V82.0805H140.561V75.5825Z" fill="white"/>
<path d="M140.561 82.0801H134.063V88.5781H140.561V82.0801Z" fill="white"/>
<path d="M140.561 88.5781H134.063V95.0761H140.561V88.5781Z" fill="white"/>
<path d="M140.561 95.0757H134.063V101.574H140.561V95.0757Z" fill="white"/>
<path d="M140.561 101.574H134.063V108.072H140.561V101.574Z" fill="white"/>
<path d="M140.561 108.072H134.063V114.57H140.561V108.072Z" fill="white"/>
<path d="M140.561 114.57H134.063V121.068H140.561V114.57Z" fill="white"/>
<path d="M140.561 121.068H134.063V127.566H140.561V121.068Z" fill="white"/>
<path d="M140.561 127.566H134.063V134.064H140.561V127.566Z" fill="white"/>
<path d="M140.561 134.064H134.063V140.562H140.561V134.064Z" fill="white"/>
<path d="M140.561 153.558H134.063V160.056H140.561V153.558Z" fill="white"/>
<path d="M140.561 160.056H134.063V166.554H140.561V160.056Z" fill="white"/>
<path d="M147.06 56.0879H140.562V62.5859H147.06V56.0879Z" fill="white"/>
<path d="M147.06 75.5825H140.562V82.0805H147.06V75.5825Z" fill="white"/>
<path d="M147.06 121.068H140.562V127.566H147.06V121.068Z" fill="white"/>
<path d="M147.06 153.558H140.562V160.056H147.06V153.558Z" fill="white"/>
<path d="M147.06 160.056H140.562V166.554H147.06V160.056Z" fill="white"/>
<path d="M153.558 75.5825H147.06V82.0805H153.558V75.5825Z" fill="white"/>
<path d="M153.558 82.0801H147.06V88.5781H153.558V82.0801Z" fill="white"/>
<path d="M153.558 95.0757H147.06V101.574H153.558V95.0757Z" fill="white"/>
<path d="M153.558 114.57H147.06V121.068H153.558V114.57Z" fill="white"/>
<path d="M153.558 134.064H147.06V140.562H153.558V134.064Z" fill="white"/>
<path d="M153.558 140.562H147.06V147.061H153.558V140.562Z" fill="white"/>
<path d="M153.558 147.06H147.06V153.558H153.558V147.06Z" fill="white"/>
<path d="M153.558 153.558H147.06V160.056H153.558V153.558Z" fill="white"/>
<path d="M153.558 160.056H147.06V166.554H153.558V160.056Z" fill="white"/>
<path d="M160.057 56.0879H153.559V62.5859H160.057V56.0879Z" fill="white"/>
<path d="M160.057 69.0845H153.559V75.5825H160.057V69.0845Z" fill="white"/>
<path d="M160.057 82.0801H153.559V88.5781H160.057V82.0801Z" fill="white"/>
<path d="M160.057 95.0757H153.559V101.574H160.057V95.0757Z" fill="white"/>
<path d="M160.057 101.574H153.559V108.072H160.057V101.574Z" fill="white"/>
<path d="M160.057 127.566H153.559V134.064H160.057V127.566Z" fill="white"/>
<path d="M160.057 134.064H153.559V140.562H160.057V134.064Z" fill="white"/>
<path d="M160.057 147.06H153.559V153.558H160.057V147.06Z" fill="white"/>
<path d="M160.057 153.558H153.559V160.056H160.057V153.558Z" fill="white"/>
<path d="M160.057 160.056H153.559V166.554H160.057V160.056Z" fill="white"/>
<path d="M166.555 75.5825H160.057V82.0805H166.555V75.5825Z" fill="white"/>
<path d="M166.555 82.0801H160.057V88.5781H166.555V82.0801Z" fill="white"/>
<path d="M166.555 88.5781H160.057V95.0761H166.555V88.5781Z" fill="white"/>
<path d="M166.555 95.0757H160.057V101.574H166.555V95.0757Z" fill="white"/>
<path d="M166.555 108.072H160.057V114.57H166.555V108.072Z" fill="white"/>
<path d="M166.555 114.57H160.057V121.068H166.555V114.57Z" fill="white"/>
<path d="M166.555 140.562H160.057V147.061H166.555V140.562Z" fill="white"/>
<path d="M166.555 160.056H160.057V166.554H166.555V160.056Z" fill="white"/>
<path fill-rule="evenodd" clip-rule="evenodd" d="M4.10449 4.104V49.59H49.5905V4.104H4.10449ZM10.6025 10.602H43.0925V43.092H10.6025V10.602Z" fill="white"/>
<path d="M36.5946 17.0996H17.1006V36.5936H36.5946V17.0996Z" fill="white"/>
<path fill-rule="evenodd" clip-rule="evenodd" d="M166.555 4.104L121.069 4.104V49.59H166.555V4.104ZM160.057 10.602V43.092H127.567V10.602L160.057 10.602Z" fill="white"/>
<path d="M153.559 36.5936V17.0996H134.065V36.5936H153.559Z" fill="white"/>
<path fill-rule="evenodd" clip-rule="evenodd" d="M4.10449 166.554H49.5905V121.068H4.10449L4.10449 166.554ZM10.6025 160.056L10.6025 127.566H43.0925V160.056H10.6025Z" fill="white"/>
<path d="M17.1006 134.064V153.558H36.5946V134.064H17.1006Z" fill="white"/>
</mask>
<g mask="url(#mask0_111_99)">
<path d="M171 0H0V171H171V0Z" fill="black"/>
</g>
</g>
<defs>
<clipPath id="clip0_111_99">
<rect width="171" height="171" fill="white"/>
</clipPath>
</defs>
</svg>
