<svg width="18" height="14" viewBox="0 0 18 14" fill="none" xmlns="http://www.w3.org/2000/svg">
<g clip-path="url(#clip0_263_30)">
<rect width="18" height="13.5" rx="3" fill="white"/>
<path fill-rule="evenodd" clip-rule="evenodd" d="M0 0V13.5H18V0H0Z" fill="#2E42A5"/>
<mask id="mask0_263_30" style="mask-type:luminance" maskUnits="userSpaceOnUse" x="0" y="0" width="18" height="14">
<path fill-rule="evenodd" clip-rule="evenodd" d="M0 0V13.5H18V0H0Z" fill="white"/>
</mask>
<g mask="url(#mask0_263_30)">
<path d="M-2.00418 12.5353L1.95694 14.211L18.0894 1.82138L20.1791 -0.668248L15.9435 -1.22794L9.36338 4.11075L4.06688 7.7085L-2.00418 12.5353Z" fill="white"/>
<path d="M-1.46249 13.7093L0.556319 14.6813L19.4288 -0.899437H16.5954L-1.46249 13.7093Z" fill="#F50100"/>
<path d="M20.0042 12.5353L16.043 14.211L-0.0894506 1.82138L-2.17914 -0.668248L2.05649 -1.22794L8.63661 4.11075L13.9331 7.7085L20.0042 12.5353Z" fill="white"/>
<path d="M19.8692 13.3779L17.8509 14.3499L9.81507 7.67869L7.43232 6.93394L-2.38049 -0.659813H0.453382L10.26 6.75394L12.8649 7.64719L19.8692 13.3779Z" fill="#F50100"/>
<path fill-rule="evenodd" clip-rule="evenodd" d="M11.1251 -1.125H6.87487V4.5H-1.10925V9H6.87487V14.625H11.1251V9H19.1407V4.5H11.1251V-1.125Z" fill="#F50100"/>
<mask id="mask1_263_30" style="mask-type:luminance" maskUnits="userSpaceOnUse" x="-2" y="-2" width="22" height="17">
<path fill-rule="evenodd" clip-rule="evenodd" d="M11.1251 -1.125H6.87487V4.5H-1.10925V9H6.87487V14.625H11.1251V9H19.1407V4.5H11.1251V-1.125Z" fill="white"/>
</mask>
<g mask="url(#mask1_263_30)">
<path d="M6.87487 -1.125V-2.25H5.74987V-1.125H6.87487ZM11.1251 -1.125H12.2501V-2.25H11.1251V-1.125ZM6.87487 4.5V5.625H7.99987V4.5H6.87487ZM-1.10925 4.5V3.375H-2.23425V4.5H-1.10925ZM-1.10925 9H-2.23425V10.125H-1.10925V9ZM6.87487 9H7.99987V7.875H6.87487V9ZM6.87487 14.625H5.74987V15.75H6.87487V14.625ZM11.1251 14.625V15.75H12.2501V14.625H11.1251ZM11.1251 9V7.875H10.0001V9H11.1251ZM19.1407 9V10.125H20.2657V9H19.1407ZM19.1407 4.5H20.2657V3.375H19.1407V4.5ZM11.1251 4.5H10.0001V5.625H11.1251V4.5ZM6.87487 0H11.1251V-2.25H6.87487V0ZM7.99987 4.5V-1.125H5.74987V4.5H7.99987ZM-1.10925 5.625H6.87487V3.375H-1.10925V5.625ZM0.0157471 9V4.5H-2.23425V9H0.0157471ZM6.87487 7.875H-1.10925V10.125H6.87487V7.875ZM7.99987 14.625V9H5.74987V14.625H7.99987ZM11.1251 13.5H6.87487V15.75H11.1251V13.5ZM10.0001 9V14.625H12.2501V9H10.0001ZM19.1407 7.875H11.1251V10.125H19.1407V7.875ZM18.0157 4.5V9H20.2657V4.5H18.0157ZM11.1251 5.625H19.1407V3.375H11.1251V5.625ZM10.0001 -1.125V4.5H12.2501V-1.125H10.0001Z" fill="white"/>
</g>
</g>
</g>
<defs>
<clipPath id="clip0_263_30">
<rect width="18" height="13.5" rx="3" fill="white"/>
</clipPath>
</defs>
</svg>
