<svg width="12" height="9" viewBox="0 0 12 9" fill="none" xmlns="http://www.w3.org/2000/svg">
<path d="M0 2.75H11.4863V5.31908H0V2.75Z" fill="#E6E7E8"/>
<path d="M0 0H11.4863V2.75259H0V0Z" fill="#1B75BB"/>
<path d="M11.4863 8.07485H0V5.32227H11.4863V8.07485Z" fill="#29B473"/>
<path d="M2.05251 2.25985C1.86646 2.25975 1.68806 2.18411 1.55654 2.04956C1.42501 1.91501 1.35113 1.73257 1.35113 1.54234C1.35108 1.35207 1.42494 1.16958 1.55647 1.03499C1.688 0.900406 1.86643 0.824743 2.05251 0.824646C2.07919 0.824768 2.10546 0.826481 2.1313 0.829784C2.00669 0.753959 1.86441 0.713835 1.71941 0.713625C1.5074 0.718187 1.30558 0.807501 1.15723 0.962418C1.00887 1.11734 0.925781 1.32552 0.925781 1.54234C0.925781 1.75915 1.00887 1.96734 1.15723 2.12226C1.30558 2.27717 1.5074 2.36649 1.71941 2.37105C1.8644 2.3709 2.00667 2.33084 2.1313 2.25507C2.10557 2.25801 2.07931 2.2596 2.05251 2.25985ZM5.13767 0.712891L5.21466 0.873825L5.38875 0.899883L5.26366 1.02522L5.29309 1.20212L5.13767 1.11826L4.98206 1.20212L5.0115 1.02522L4.88622 0.899883L5.06031 0.873825L5.13767 0.712891ZM5.13767 1.29626L5.21466 1.45811L5.38875 1.48527L5.26366 1.60968L5.29309 1.7864L5.13767 1.70272L4.98206 1.7864L5.0115 1.60968L4.88622 1.48527L5.06031 1.45811L5.13767 1.29626ZM5.13767 1.88164L5.21466 2.04312L5.38875 2.06882L5.26366 2.19397L5.29309 2.37087L5.13767 2.28756L4.98206 2.37087L5.0115 2.19397L4.88622 2.06882L5.06031 2.04312L5.13767 1.88164ZM4.49138 0.712891L4.56981 0.873825L4.74336 0.899883L4.61773 1.02522L4.64716 1.20212L4.49138 1.11826L4.33703 1.20212L4.36593 1.02522L4.24066 0.899883L4.41421 0.873825L4.49138 0.712891ZM4.49138 1.29626L4.56981 1.45811L4.74336 1.48527L4.61773 1.60968L4.64716 1.7864L4.49138 1.70272L4.33703 1.7864L4.36593 1.60968L4.24066 1.48527L4.41421 1.45811L4.49138 1.29626ZM4.49138 1.88164L4.56981 2.04312L4.74336 2.06882L4.61773 2.19397L4.64716 2.37087L4.49138 2.28756L4.33703 2.37087L4.36593 2.19397L4.24066 2.06882L4.41421 2.04312L4.49138 1.88164ZM3.84617 0.712891L3.9237 0.873825L4.09779 0.899883L3.97091 1.02522L4.00178 1.20212L3.84617 1.11826L3.69039 1.20212L3.72054 1.02522L3.59401 0.899883L3.7681 0.873825L3.84617 0.712891ZM3.84617 1.29626L3.9237 1.45811L4.09779 1.48527L3.97091 1.60968L4.00178 1.7864L3.84617 1.70272L3.69039 1.7864L3.72054 1.60968L3.59401 1.48527L3.7681 1.45811L3.84617 1.29626ZM3.84617 1.88164L3.9237 2.04312L4.09779 2.06882L3.97091 2.19397L4.00178 2.37087L3.84617 2.28756L3.69039 2.37087L3.72054 2.19397L3.59401 2.06882L3.7681 2.04312L3.84617 1.88164ZM3.20043 1.29626L3.27814 1.45811L3.45187 1.48527L3.32624 1.60968L3.35621 1.7864L3.20043 1.70272L3.04482 1.7864L3.07533 1.60968L2.94862 1.48527L3.12289 1.45811L3.20043 1.29626ZM3.20043 1.88164L3.27814 2.04312L3.45187 2.06882L3.32624 2.19397L3.35621 2.37087L3.20043 2.28756L3.04482 2.37087L3.07533 2.19397L2.94862 2.06882L3.12289 2.04312L3.20043 1.88164ZM2.55127 1.88164L2.62898 2.04312L2.80307 2.06882L2.67726 2.19397L2.70741 2.37087L2.55127 2.28756L2.39566 2.37087L2.42546 2.19397L2.29983 2.06882L2.47356 2.04312L2.55127 1.88164Z" fill="#E6E7E8"/>
<path d="M0 2.75H11.4863V3.11701H0V2.75ZM0 5.13558H11.4863V5.50259H0V5.13558Z" fill="#EC1C24"/>
</svg>
