<svg width="32" height="32" viewBox="0 0 32 32" fill="none" xmlns="http://www.w3.org/2000/svg">
<g clip-path="url(#clip0_420_321)">
<rect width="31.29" height="31.29" rx="10" fill="white"/>
<path d="M12.9084 23C12.3095 23 11.8603 22.8963 11.5609 22.689C11.2614 22.4817 11.008 21.9634 10.8007 21.1342L7.89835 9.17924H13.2539L14.5669 15.7441C14.659 16.0205 14.7396 16.2739 14.8087 16.5042C14.8778 16.7116 14.97 16.8958 15.0851 17.0571C15.2234 17.1953 15.3846 17.3335 15.5689 17.4717C16.0756 16.2969 16.5824 15.1337 17.0892 13.982C17.619 12.8302 18.1372 11.6785 18.644 10.5268C18.8283 10.1121 19.0586 9.78965 19.335 9.55931C19.6114 9.32896 20.003 9.21379 20.5098 9.21379H22.5829L15.4652 23H12.9084Z" fill="#49FFB5"/>
<path d="M13.9601 23C13.3612 23 12.9121 22.8963 12.6126 22.689C12.3132 22.4817 12.0598 21.9634 11.8525 21.1342L8.95011 9.17924H14.3057L15.6186 15.7441C15.7108 16.0205 15.7914 16.2739 15.8605 16.5042C15.9296 16.7116 16.0217 16.8958 16.1369 17.0571C16.2751 17.1953 16.4364 17.3335 16.6206 17.4717C17.1274 16.2969 17.6342 15.1337 18.1409 13.982C18.6707 12.8302 19.189 11.6785 19.6958 10.5268C19.88 10.1121 20.1104 9.78965 20.3868 9.55931C20.6632 9.32896 21.0548 9.21379 21.5616 9.21379H23.6347L16.517 23H13.9601Z" fill="#15DF8C"/>
<path d="M15.0119 23C14.413 23 13.9638 22.8963 13.6644 22.689C13.3649 22.4817 13.1115 21.9634 12.9042 21.1342L10.0019 9.17924H15.3574L16.6704 15.7441C16.7625 16.0205 16.8431 16.2739 16.9122 16.5042C16.9814 16.7116 17.0735 16.8958 17.1887 17.0571C17.3269 17.1953 17.4881 17.3335 17.6724 17.4717C18.1792 16.2969 18.6859 15.1337 19.1927 13.982C19.7225 12.8302 20.2407 11.6785 20.7475 10.5268C20.9318 10.1121 21.1621 9.78965 21.4385 9.55931C21.715 9.32896 22.1066 9.21379 22.6133 9.21379H24.6864L17.5687 23H15.0119Z" fill="#32BB78"/>
</g>
<defs>
<clipPath id="clip0_420_321">
<rect width="31.29" height="31.29" rx="10" fill="white"/>
</clipPath>
</defs>
</svg>
