<svg width="157" height="38" viewBox="0 0 157 38" fill="none" xmlns="http://www.w3.org/2000/svg">
<g clip-path="url(#clip0_245_12)">
<mask id="path-1-outside-1_245_12" maskUnits="userSpaceOnUse" x="0" y="1" width="157" height="37" fill="black">
<rect fill="white" y="1" width="157" height="37"/>
<path d="M20.8041 35H14.9198L2.25584 3.65985H8.65179L17.862 27.9645H17.9899L27.328 3.65985H33.596L20.8041 35ZM34.7088 19.3299C34.7088 14.5116 36.2225 10.5248 39.2499 7.3695C42.32 4.21417 46.1788 2.6365 50.8266 2.6365C55.4743 2.6365 59.3119 4.21417 62.3393 7.3695C65.4093 10.5248 66.9444 14.5116 66.9444 19.3299C66.9444 24.1908 65.4093 28.1777 62.3393 31.2904C59.3119 34.4457 55.4743 36.0234 50.8266 36.0234C46.1788 36.0234 42.32 34.4457 39.2499 31.2904C36.2225 28.135 34.7088 24.1482 34.7088 19.3299ZM40.5931 19.3299C40.5931 22.6985 41.5738 25.4274 43.5352 27.5167C45.4966 29.6061 47.9271 30.6508 50.8266 30.6508C53.7261 30.6508 56.1565 29.6061 58.118 27.5167C60.0794 25.4274 61.0601 22.6985 61.0601 19.3299C61.0601 16.004 60.0794 13.2964 58.118 11.2071C56.1139 9.07509 53.6834 8.0091 50.8266 8.0091C47.9697 8.0091 45.5393 9.07509 43.5352 11.2071C41.5738 13.2964 40.5931 16.004 40.5931 19.3299ZM70.4986 19.3299C70.4986 14.5116 72.0123 10.5248 75.0397 7.3695C78.1098 4.21417 81.9687 2.6365 86.6164 2.6365C91.2641 2.6365 95.1017 4.21417 98.1291 7.3695C101.199 10.5248 102.734 14.5116 102.734 19.3299C102.734 24.1908 101.199 28.1777 98.1291 31.2904C95.1017 34.4457 91.2641 36.0234 86.6164 36.0234C81.9687 36.0234 78.1098 34.4457 75.0397 31.2904C72.0123 28.135 70.4986 24.1482 70.4986 19.3299ZM76.3829 19.3299C76.3829 22.6985 77.3636 25.4274 79.325 27.5167C81.2864 29.6061 83.7169 30.6508 86.6164 30.6508C89.5159 30.6508 91.9464 29.6061 93.9078 27.5167C95.8692 25.4274 96.8499 22.6985 96.8499 19.3299C96.8499 16.004 95.8692 13.2964 93.9078 11.2071C91.9037 9.07509 89.4733 8.0091 86.6164 8.0091C83.7595 8.0091 81.3291 9.07509 79.325 11.2071C77.3636 13.2964 76.3829 16.004 76.3829 19.3299ZM113.339 35H107.455V3.65985H113.083V8.0091H113.339C114.234 6.47407 115.599 5.19488 117.432 4.17153C119.309 3.14818 121.163 2.6365 122.997 2.6365C125.299 2.6365 127.325 3.1695 129.073 4.23549C130.821 5.30148 132.1 6.77255 132.911 8.64869C135.512 4.64056 139.115 2.6365 143.72 2.6365C147.344 2.6365 150.137 3.74513 152.098 5.96239C154.06 8.17966 155.041 11.335 155.041 15.4284V35H149.156V16.3238C149.156 13.3817 148.623 11.271 147.557 9.99184C146.491 8.67001 144.7 8.0091 142.185 8.0091C139.925 8.0091 138.027 8.96849 136.492 10.8873C134.957 12.8061 134.19 15.066 134.19 17.667V35H128.305V16.3238C128.305 13.3817 127.772 11.271 126.706 9.99184C125.641 8.67001 123.85 8.0091 121.334 8.0091C119.074 8.0091 117.177 8.96849 115.642 10.8873C114.106 12.8061 113.339 15.066 113.339 17.667V35Z"/>
</mask>
<path d="M20.8041 35H14.9198L2.25584 3.65985H8.65179L17.862 27.9645H17.9899L27.328 3.65985H33.596L20.8041 35ZM34.7088 19.3299C34.7088 14.5116 36.2225 10.5248 39.2499 7.3695C42.32 4.21417 46.1788 2.6365 50.8266 2.6365C55.4743 2.6365 59.3119 4.21417 62.3393 7.3695C65.4093 10.5248 66.9444 14.5116 66.9444 19.3299C66.9444 24.1908 65.4093 28.1777 62.3393 31.2904C59.3119 34.4457 55.4743 36.0234 50.8266 36.0234C46.1788 36.0234 42.32 34.4457 39.2499 31.2904C36.2225 28.135 34.7088 24.1482 34.7088 19.3299ZM40.5931 19.3299C40.5931 22.6985 41.5738 25.4274 43.5352 27.5167C45.4966 29.6061 47.9271 30.6508 50.8266 30.6508C53.7261 30.6508 56.1565 29.6061 58.118 27.5167C60.0794 25.4274 61.0601 22.6985 61.0601 19.3299C61.0601 16.004 60.0794 13.2964 58.118 11.2071C56.1139 9.07509 53.6834 8.0091 50.8266 8.0091C47.9697 8.0091 45.5393 9.07509 43.5352 11.2071C41.5738 13.2964 40.5931 16.004 40.5931 19.3299ZM70.4986 19.3299C70.4986 14.5116 72.0123 10.5248 75.0397 7.3695C78.1098 4.21417 81.9687 2.6365 86.6164 2.6365C91.2641 2.6365 95.1017 4.21417 98.1291 7.3695C101.199 10.5248 102.734 14.5116 102.734 19.3299C102.734 24.1908 101.199 28.1777 98.1291 31.2904C95.1017 34.4457 91.2641 36.0234 86.6164 36.0234C81.9687 36.0234 78.1098 34.4457 75.0397 31.2904C72.0123 28.135 70.4986 24.1482 70.4986 19.3299ZM76.3829 19.3299C76.3829 22.6985 77.3636 25.4274 79.325 27.5167C81.2864 29.6061 83.7169 30.6508 86.6164 30.6508C89.5159 30.6508 91.9464 29.6061 93.9078 27.5167C95.8692 25.4274 96.8499 22.6985 96.8499 19.3299C96.8499 16.004 95.8692 13.2964 93.9078 11.2071C91.9037 9.07509 89.4733 8.0091 86.6164 8.0091C83.7595 8.0091 81.3291 9.07509 79.325 11.2071C77.3636 13.2964 76.3829 16.004 76.3829 19.3299ZM113.339 35H107.455V3.65985H113.083V8.0091H113.339C114.234 6.47407 115.599 5.19488 117.432 4.17153C119.309 3.14818 121.163 2.6365 122.997 2.6365C125.299 2.6365 127.325 3.1695 129.073 4.23549C130.821 5.30148 132.1 6.77255 132.911 8.64869C135.512 4.64056 139.115 2.6365 143.72 2.6365C147.344 2.6365 150.137 3.74513 152.098 5.96239C154.06 8.17966 155.041 11.335 155.041 15.4284V35H149.156V16.3238C149.156 13.3817 148.623 11.271 147.557 9.99184C146.491 8.67001 144.7 8.0091 142.185 8.0091C139.925 8.0091 138.027 8.96849 136.492 10.8873C134.957 12.8061 134.19 15.066 134.19 17.667V35H128.305V16.3238C128.305 13.3817 127.772 11.271 126.706 9.99184C125.641 8.67001 123.85 8.0091 121.334 8.0091C119.074 8.0091 117.177 8.96849 115.642 10.8873C114.106 12.8061 113.339 15.066 113.339 17.667V35Z" fill="black"/>
<path d="M20.8041 35V36.2115H21.6181L21.9257 35.4578L20.8041 35ZM14.9198 35L13.7966 35.4539L14.1027 36.2115H14.9198V35ZM2.25584 3.65985V2.44836H0.45963L1.13258 4.11374L2.25584 3.65985ZM8.65179 3.65985L9.78467 3.23055L9.48826 2.44836H8.65179V3.65985ZM17.862 27.9645L16.7291 28.3938L17.0255 29.176H17.862V27.9645ZM17.9899 27.9645V29.176H18.8222L19.1208 28.399L17.9899 27.9645ZM27.328 3.65985V2.44836H26.4956L26.1971 3.22535L27.328 3.65985ZM33.596 3.65985L34.7176 4.11767L35.399 2.44836H33.596V3.65985ZM20.8041 35V33.7885H14.9198V35V36.2115H20.8041V35ZM14.9198 35L16.0431 34.5461L3.3791 3.20597L2.25584 3.65985L1.13258 4.11374L13.7966 35.4539L14.9198 35ZM2.25584 3.65985V4.87135H8.65179V3.65985V2.44836H2.25584V3.65985ZM8.65179 3.65985L7.5189 4.08916L16.7291 28.3938L17.862 27.9645L18.9948 27.5352L9.78467 3.23055L8.65179 3.65985ZM17.862 27.9645V29.176H17.9899V27.9645V26.753H17.862V27.9645ZM17.9899 27.9645L19.1208 28.399L28.4589 4.09436L27.328 3.65985L26.1971 3.22535L16.859 27.53L17.9899 27.9645ZM27.328 3.65985V4.87135H33.596V3.65985V2.44836H27.328V3.65985ZM33.596 3.65985L32.4743 3.20203L19.6824 34.5422L20.8041 35L21.9257 35.4578L34.7176 4.11767L33.596 3.65985ZM39.2499 7.3695L38.3816 6.52464L38.3757 6.53075L39.2499 7.3695ZM62.3393 7.3695L61.4651 8.20828L61.471 8.21435L62.3393 7.3695ZM62.3393 31.2904L61.4767 30.4396L61.4709 30.4456L61.4651 30.4516L62.3393 31.2904ZM39.2499 31.2904L38.3757 32.1291L38.3816 32.1352L39.2499 31.2904ZM58.118 11.2071L59.0012 10.3779L59.0007 10.3773L58.118 11.2071ZM43.5352 11.2071L42.6525 10.3773L42.6519 10.3779L43.5352 11.2071ZM34.7088 19.3299H35.9203C35.9203 14.7895 37.336 11.1141 40.1241 8.20826L39.2499 7.3695L38.3757 6.53075C35.1089 9.93556 33.4973 14.2338 33.4973 19.3299H34.7088ZM39.2499 7.3695L40.1182 8.21435C42.9464 5.30761 46.4856 3.848 50.8266 3.848V2.6365V1.425C45.8721 1.425 41.6935 3.12072 38.3816 6.52466L39.2499 7.3695ZM50.8266 2.6365V3.848C55.1675 3.848 58.6817 5.30726 61.4651 8.20826L62.3393 7.3695L63.2135 6.53075C59.942 3.12108 55.7811 1.425 50.8266 1.425V2.6365ZM62.3393 7.3695L61.471 8.21435C64.2992 11.1211 65.7329 14.7946 65.7329 19.3299H66.9444H68.1559C68.1559 14.2287 66.5195 9.92854 63.2076 6.52466L62.3393 7.3695ZM66.9444 19.3299H65.7329C65.7329 23.9114 64.2973 27.5799 61.4767 30.4396L62.3393 31.2904L63.2018 32.1411C66.5214 28.7754 68.1559 24.4703 68.1559 19.3299H66.9444ZM62.3393 31.2904L61.4651 30.4516C58.6817 33.3526 55.1675 34.8119 50.8266 34.8119V36.0234V37.2348C55.7811 37.2348 59.942 35.5388 63.2135 32.1291L62.3393 31.2904ZM50.8266 36.0234V34.8119C46.4856 34.8119 42.9464 33.3522 40.1182 30.4455L39.2499 31.2904L38.3816 32.1352C41.6935 35.5391 45.8721 37.2348 50.8266 37.2348V36.0234ZM39.2499 31.2904L40.1241 30.4516C37.336 27.5457 35.9203 23.8703 35.9203 19.3299H34.7088H33.4973C33.4973 24.4261 35.1089 28.7243 38.3757 32.1291L39.2499 31.2904ZM40.5931 19.3299H39.3816C39.3816 22.9489 40.4432 25.9932 42.6519 28.3459L43.5352 27.5167L44.4185 26.6875C42.7043 24.8616 41.8045 22.448 41.8045 19.3299H40.5931ZM43.5352 27.5167L42.6519 28.3459C44.8454 30.6825 47.597 31.8623 50.8266 31.8623V30.6508V29.4393C48.2572 29.4393 46.1478 28.5297 44.4185 26.6875L43.5352 27.5167ZM50.8266 30.6508V31.8623C54.0562 31.8623 56.8078 30.6825 59.0012 28.3459L58.118 27.5167L57.2347 26.6875C55.5053 28.5297 53.396 29.4393 50.8266 29.4393V30.6508ZM58.118 27.5167L59.0012 28.3459C61.2099 25.9932 62.2716 22.9489 62.2716 19.3299H61.0601H59.8486C59.8486 22.448 58.9488 24.8616 57.2347 26.6875L58.118 27.5167ZM61.0601 19.3299H62.2716C62.2716 15.7489 61.2072 12.7277 59.0012 10.3779L58.118 11.2071L57.2347 12.0363C58.9516 13.8651 59.8486 16.2591 59.8486 19.3299H61.0601ZM58.118 11.2071L59.0007 10.3773C56.7739 8.00841 54.0268 6.7976 50.8266 6.7976V8.0091V9.22059C53.3401 9.22059 55.4539 10.1418 57.2352 12.0368L58.118 11.2071ZM50.8266 8.0091V6.7976C47.6264 6.7976 44.8792 8.00841 42.6525 10.3773L43.5352 11.2071L44.4179 12.0368C46.1993 10.1418 48.3131 9.22059 50.8266 9.22059V8.0091ZM43.5352 11.2071L42.6519 10.3779C40.446 12.7277 39.3816 15.7489 39.3816 19.3299H40.5931H41.8045C41.8045 16.2591 42.7016 13.8651 44.4185 12.0363L43.5352 11.2071ZM75.0397 7.3695L74.1714 6.52464L74.1655 6.53075L75.0397 7.3695ZM98.1291 7.3695L97.2549 8.20828L97.2608 8.21435L98.1291 7.3695ZM98.1291 31.2904L97.2666 30.4396L97.2607 30.4456L97.2549 30.4516L98.1291 31.2904ZM75.0397 31.2904L74.1655 32.1291L74.1714 32.1352L75.0397 31.2904ZM93.9078 11.2071L94.791 10.3779L94.7905 10.3773L93.9078 11.2071ZM79.325 11.2071L78.4423 10.3773L78.4417 10.3779L79.325 11.2071ZM70.4986 19.3299H71.7101C71.7101 14.7895 73.1259 11.1141 75.9139 8.20826L75.0397 7.3695L74.1655 6.53075C70.8988 9.93556 69.2871 14.2338 69.2871 19.3299H70.4986ZM75.0397 7.3695L75.908 8.21435C78.7362 5.30761 82.2754 3.848 86.6164 3.848V2.6365V1.425C81.6619 1.425 77.4834 3.12072 74.1714 6.52466L75.0397 7.3695ZM86.6164 2.6365V3.848C90.9573 3.848 94.4715 5.30726 97.2549 8.20826L98.1291 7.3695L99.0033 6.53075C95.7319 3.12108 91.571 1.425 86.6164 1.425V2.6365ZM98.1291 7.3695L97.2608 8.21435C100.089 11.1211 101.523 14.7946 101.523 19.3299H102.734H103.946C103.946 14.2287 102.309 9.92854 98.9974 6.52466L98.1291 7.3695ZM102.734 19.3299H101.523C101.523 23.9114 100.087 27.5799 97.2666 30.4396L98.1291 31.2904L98.9916 32.1411C102.311 28.7754 103.946 24.4703 103.946 19.3299H102.734ZM98.1291 31.2904L97.2549 30.4516C94.4715 33.3526 90.9573 34.8119 86.6164 34.8119V36.0234V37.2348C91.571 37.2348 95.7319 35.5388 99.0033 32.1291L98.1291 31.2904ZM86.6164 36.0234V34.8119C82.2754 34.8119 78.7362 33.3522 75.908 30.4455L75.0397 31.2904L74.1714 32.1352C77.4834 35.5391 81.6619 37.2348 86.6164 37.2348V36.0234ZM75.0397 31.2904L75.9139 30.4516C73.1259 27.5457 71.7101 23.8703 71.7101 19.3299H70.4986H69.2871C69.2871 24.4261 70.8988 28.7243 74.1655 32.1291L75.0397 31.2904ZM76.3829 19.3299H75.1714C75.1714 22.9489 76.2331 25.9932 78.4417 28.3459L79.325 27.5167L80.2083 26.6875C78.4941 24.8616 77.5944 22.448 77.5944 19.3299H76.3829ZM79.325 27.5167L78.4417 28.3459C80.6352 30.6825 83.3868 31.8623 86.6164 31.8623V30.6508V29.4393C84.047 29.4393 81.9377 28.5297 80.2083 26.6875L79.325 27.5167ZM86.6164 30.6508V31.8623C89.846 31.8623 92.5976 30.6825 94.791 28.3459L93.9078 27.5167L93.0245 26.6875C91.2951 28.5297 89.1858 29.4393 86.6164 29.4393V30.6508ZM93.9078 27.5167L94.791 28.3459C96.9997 25.9932 98.0614 22.9489 98.0614 19.3299H96.8499H95.6384C95.6384 22.448 94.7387 24.8616 93.0245 26.6875L93.9078 27.5167ZM96.8499 19.3299H98.0614C98.0614 15.7489 96.997 12.7277 94.791 10.3779L93.9078 11.2071L93.0245 12.0363C94.7414 13.8651 95.6384 16.2591 95.6384 19.3299H96.8499ZM93.9078 11.2071L94.7905 10.3773C92.5637 8.00841 89.8166 6.7976 86.6164 6.7976V8.0091V9.22059C89.1299 9.22059 91.2437 10.1418 93.025 12.0368L93.9078 11.2071ZM86.6164 8.0091V6.7976C83.4162 6.7976 80.669 8.00841 78.4423 10.3773L79.325 11.2071L80.2077 12.0368C81.9891 10.1418 84.1029 9.22059 86.6164 9.22059V8.0091ZM79.325 11.2071L78.4417 10.3779C76.2358 12.7277 75.1714 15.7489 75.1714 19.3299H76.3829H77.5944C77.5944 16.2591 78.4914 13.8651 80.2083 12.0363L79.325 11.2071ZM113.339 35V36.2115H114.55V35H113.339ZM107.455 35H106.243V36.2115H107.455V35ZM107.455 3.65985V2.44836H106.243V3.65985H107.455ZM113.083 3.65985H114.295V2.44836H113.083V3.65985ZM113.083 8.0091H111.872V9.22059H113.083V8.0091ZM113.339 8.0091V9.22059H114.035L114.385 8.61954L113.339 8.0091ZM117.432 4.17153L116.852 3.10791L116.842 3.11365L117.432 4.17153ZM132.911 8.64869L131.798 9.12897L132.695 11.206L133.927 9.30818L132.911 8.64869ZM155.041 35V36.2115H156.252V35H155.041ZM149.156 35H147.945V36.2115H149.156V35ZM147.557 9.99184L146.614 10.7524L146.62 10.7599L146.627 10.7674L147.557 9.99184ZM136.492 10.8873L137.438 11.6441L137.438 11.6441L136.492 10.8873ZM134.19 35V36.2115H135.401V35H134.19ZM128.305 35H127.094V36.2115H128.305V35ZM126.706 9.99184L125.763 10.7524L125.77 10.7599L125.776 10.7674L126.706 9.99184ZM115.642 10.8873L116.588 11.6441L116.588 11.6441L115.642 10.8873ZM113.339 35V33.7885H107.455V35V36.2115H113.339V35ZM107.455 35H108.666V3.65985H107.455H106.243V35H107.455ZM107.455 3.65985V4.87135H113.083V3.65985V2.44836H107.455V3.65985ZM113.083 3.65985H111.872V8.0091H113.083H114.295V3.65985H113.083ZM113.083 8.0091V9.22059H113.339V8.0091V6.7976H113.083V8.0091ZM113.339 8.0091L114.385 8.61954C115.153 7.3033 116.344 6.16643 118.023 5.2294L117.432 4.17153L116.842 3.11365C114.854 4.22333 113.316 5.64484 112.293 7.39866L113.339 8.0091ZM117.432 4.17153L118.013 5.2351C119.74 4.29265 121.397 3.848 122.997 3.848V2.6365V1.425C120.929 1.425 118.877 2.0037 116.852 3.10796L117.432 4.17153ZM122.997 2.6365V3.848C125.105 3.848 126.907 4.33366 128.442 5.26986L129.073 4.23549L129.704 3.20112C127.743 2.00533 125.493 1.425 122.997 1.425V2.6365ZM129.073 4.23549L128.442 5.26986C129.977 6.20567 131.088 7.48336 131.798 9.12897L132.911 8.64869L134.023 8.16841C133.113 6.06173 131.665 4.39729 129.704 3.20112L129.073 4.23549ZM132.911 8.64869L133.927 9.30818C136.315 5.62872 139.543 3.848 143.72 3.848V2.6365V1.425C138.686 1.425 134.709 3.65241 131.894 7.9892L132.911 8.64869ZM143.72 2.6365V3.848C147.081 3.848 149.51 4.86497 151.191 6.7651L152.098 5.96239L153.006 5.15969C150.764 2.62529 147.607 1.425 143.72 1.425V2.6365ZM152.098 5.96239L151.191 6.7651C152.893 8.68859 153.829 11.5174 153.829 15.4284H155.041H156.252C156.252 11.1526 155.227 7.67072 153.006 5.15969L152.098 5.96239ZM155.041 15.4284H153.829V35H155.041H156.252V15.4284H155.041ZM155.041 35V33.7885H149.156V35V36.2115H155.041V35ZM149.156 35H150.368V16.3238H149.156H147.945V35H149.156ZM149.156 16.3238H150.368C150.368 13.2935 149.83 10.8267 148.488 9.21626L147.557 9.99184L146.627 10.7674C147.417 11.7153 147.945 13.4699 147.945 16.3238H149.156ZM147.557 9.99184L148.5 9.23132C147.111 7.508 144.885 6.7976 142.185 6.7976V8.0091V9.22059C144.516 9.22059 145.872 9.83202 146.614 10.7524L147.557 9.99184ZM142.185 8.0091V6.7976C139.521 6.7976 137.288 7.95301 135.546 10.1305L136.492 10.8873L137.438 11.6441C138.766 9.98397 140.328 9.22059 142.185 9.22059V8.0091ZM136.492 10.8873L135.546 10.1305C133.829 12.2772 132.978 14.8082 132.978 17.667H134.19H135.401C135.401 15.3237 136.086 13.3349 137.438 11.6441L136.492 10.8873ZM134.19 17.667H132.978V35H134.19H135.401V17.667H134.19ZM134.19 35V33.7885H128.305V35V36.2115H134.19V35ZM128.305 35H129.517V16.3238H128.305H127.094V35H128.305ZM128.305 16.3238H129.517C129.517 13.2935 128.979 10.8267 127.637 9.21626L126.706 9.99184L125.776 10.7674C126.566 11.7153 127.094 13.4699 127.094 16.3238H128.305ZM126.706 9.99184L127.65 9.23132C126.26 7.508 124.035 6.7976 121.334 6.7976V8.0091V9.22059C123.665 9.22059 125.021 9.83202 125.763 10.7524L126.706 9.99184ZM121.334 8.0091V6.7976C118.671 6.7976 116.437 7.95301 114.695 10.1305L115.642 10.8873L116.588 11.6441C117.916 9.98397 119.477 9.22059 121.334 9.22059V8.0091ZM115.642 10.8873L114.695 10.1305C112.978 12.2772 112.127 14.8082 112.127 17.667H113.339H114.55C114.55 15.3237 115.235 13.3349 116.588 11.6441L115.642 10.8873ZM113.339 17.667H112.127V35H113.339H114.55V17.667H113.339Z" fill="black" mask="url(#path-1-outside-1_245_12)"/>
</g>
<defs>
<clipPath id="clip0_245_12">
<rect width="157" height="38" fill="white"/>
</clipPath>
</defs>
</svg>
