<svg width="24" height="24" viewBox="0 0 24 24" fill="none" xmlns="http://www.w3.org/2000/svg">
<path d="M9.00098 10C11.2101 10 13.001 8.20914 13.001 6C13.001 3.79086 11.2101 2 9.00098 2C6.79184 2 5.00098 3.79086 5.00098 6C5.00098 8.20914 6.79184 10 9.00098 10Z" fill="#7C7C7C"/>
<path d="M9.00098 21.001C12.867 21.001 16.001 19.2101 16.001 17.001C16.001 14.7918 12.867 13.001 9.00098 13.001C5.13498 13.001 2.00098 14.7918 2.00098 17.001C2.00098 19.2101 5.13498 21.001 9.00098 21.001Z" fill="#7C7C7C"/>
<path d="M20.9997 16.9997C20.9997 18.6567 18.9637 19.9997 16.4787 19.9997C17.2107 19.1997 17.7147 18.1947 17.7147 17.0017C17.7147 15.8067 17.2097 14.8017 16.4757 14.0007C18.9617 13.9997 20.9997 15.3437 20.9997 16.9997ZM17.9997 5.99965C18 6.48237 17.8839 6.95803 17.6611 7.38626C17.4383 7.81449 17.1154 8.18263 16.72 8.45943C16.3245 8.73623 15.8681 8.91351 15.3895 8.97622C14.9108 9.03893 14.4241 8.98522 13.9707 8.81965C14.4587 7.95998 14.7148 6.98818 14.7137 5.99965C14.7137 4.97465 14.4437 4.01265 13.9717 3.18065C14.4251 3.01528 14.9117 2.96173 15.3902 3.02454C15.8686 3.08735 16.3249 3.26467 16.7203 3.54144C17.1156 3.81822 17.4383 4.18628 17.6611 4.6144C17.8838 5.04252 18 5.51706 17.9997 5.99965Z" fill="#7C7C7C"/>
</svg>
